<svg width="673" height="1095" viewBox="0 0 673 1095" preserveAspectRatio="none" xmlns="http://www.w3.org/2000/svg" xmlns:xlink="http://www.w3.org/1999/xlink" overflow="hidden"><defs/><g><rect x="16" y="27" width="8" height="1050.65" fill="#F1E5E5"/><rect x="44" y="27" width="8" height="1050.65" fill="#F1E5E5"/><rect x="72" y="27" width="8" height="1050.65" fill="#F1E5E5"/><rect x="100" y="27" width="8" height="1050.65" fill="#F1E5E5"/><rect x="128" y="27" width="8" height="1050.65" fill="#F1E5E5"/><rect x="156" y="27" width="8" height="1050.65" fill="#F1E5E5"/><rect x="184" y="27" width="8" height="1050.65" fill="#F1E5E5"/><rect x="212" y="27" width="8" height="1050.65" fill="#F1E5E5"/><rect x="240" y="27" width="8" height="1050.65" fill="#F1E5E5"/><rect x="268" y="27" width="8" height="1050.65" fill="#F1E5E5"/><rect x="296" y="27" width="8" height="1050.65" fill="#F1E5E5"/><rect x="324" y="27" width="8" height="1050.65" fill="#F1E5E5"/><rect x="352" y="27" width="8" height="1050.65" fill="#F1E5E5"/><rect x="380" y="27" width="8" height="1050.65" fill="#F1E5E5"/><rect x="408" y="27" width="8" height="1050.65" fill="#F1E5E5"/><rect x="436" y="27" width="8" height="1050.65" fill="#F1E5E5"/><rect x="464" y="27" width="8" height="1050.65" fill="#F1E5E5"/><rect x="492" y="27" width="8" height="1050.65" fill="#F1E5E5"/><rect x="520" y="27" width="8" height="1050.65" fill="#F1E5E5"/><rect x="548" y="27" width="8" height="1050.65" fill="#F1E5E5"/><text font-family="Arial" font-size="10" x="29" y="25.2822">28</text><text font-family="Arial" font-size="10" x="57" y="25.2822">29</text><text font-family="Arial" font-size="10" x="85" y="25.2822">30</text><text font-family="Arial" font-size="10" x="113" y="25.2822">31</text><text font-family="Arial" font-size="10" x="141" y="25.2822">32</text><text font-family="Arial" font-size="10" x="169" y="25.2822">33</text><text font-family="Arial" font-size="10" x="197" y="25.2822">34</text><text font-family="Arial" font-size="10" x="225" y="25.2822">35</text><text font-family="Arial" font-size="10" x="253" y="25.2822">36</text><text font-family="Arial" font-size="10" x="281" y="25.2822">37</text><text font-family="Arial" font-size="10" x="309" y="25.2822">38</text><text font-family="Arial" font-size="10" x="337" y="25.2822">39</text><text font-family="Arial" font-size="10" x="365" y="25.2822">40</text><text font-family="Arial" font-size="10" x="393" y="25.2822">41</text><text font-family="Arial" font-size="10" x="421" y="25.2822">42</text><text font-family="Arial" font-size="10" x="449" y="25.2822">43</text><text font-family="Arial" font-size="10" x="477" y="25.2822">44</text><text font-family="Arial" font-size="10" x="505" y="25.2822">45</text><text font-family="Arial" font-size="10" x="533" y="25.2822">46</text><text font-family="Arial" font-size="10" x="561" y="25.2822">47</text><line x1="24" y1="16" x2="24" y2="1077.65" stroke="#C0C0C0"/><line x1="52" y1="16" x2="52" y2="1077.65" stroke="#C0C0C0"/><line x1="80" y1="16" x2="80" y2="1077.65" stroke="#C0C0C0"/><line x1="108" y1="16" x2="108" y2="1077.65" stroke="#C0C0C0"/><line x1="136" y1="16" x2="136" y2="1077.65" stroke="#C0C0C0"/><line x1="164" y1="16" x2="164" y2="1077.65" stroke="#C0C0C0"/><line x1="192" y1="16" x2="192" y2="1077.65" stroke="#C0C0C0"/><line x1="220" y1="16" x2="220" y2="1077.65" stroke="#C0C0C0"/><line x1="248" y1="16" x2="248" y2="1077.65" stroke="#C0C0C0"/><line x1="276" y1="16" x2="276" y2="1077.65" stroke="#C0C0C0"/><line x1="304" y1="16" x2="304" y2="1077.65" stroke="#C0C0C0"/><line x1="332" y1="16" x2="332" y2="1077.65" stroke="#C0C0C0"/><line x1="360" y1="16" x2="360" y2="1077.65" stroke="#C0C0C0"/><line x1="388" y1="16" x2="388" y2="1077.65" stroke="#C0C0C0"/><line x1="416" y1="16" x2="416" y2="1077.65" stroke="#C0C0C0"/><line x1="444" y1="16" x2="444" y2="1077.65" stroke="#C0C0C0"/><line x1="472" y1="16" x2="472" y2="1077.65" stroke="#C0C0C0"/><line x1="500" y1="16" x2="500" y2="1077.65" stroke="#C0C0C0"/><line x1="528" y1="16" x2="528" y2="1077.65" stroke="#C0C0C0"/><line x1="556" y1="16" x2="556" y2="1077.65" stroke="#C0C0C0"/><line x1="572" y1="16" x2="572" y2="1077.65" stroke="#C0C0C0"/><line x1="0" y1="0" x2="0" y2="16" stroke="#C0C0C0"/><line x1="124" y1="0" x2="124" y2="16" stroke="#C0C0C0"/><text font-family="Arial" font-weight="700" font-size="12" x="34.6514" y="11.1387">Jul 2025</text><line x1="248" y1="0" x2="248" y2="16" stroke="#C0C0C0"/><text font-family="Arial" font-weight="700" font-size="12" x="154.002" y="11.1387">Aug 2025</text><line x1="368" y1="0" x2="368" y2="16" stroke="#C0C0C0"/><text font-family="Arial" font-weight="700" font-size="12" x="276.526" y="11.1387">Sep 2025</text><line x1="492" y1="0" x2="492" y2="16" stroke="#C0C0C0"/><text font-family="Arial" font-weight="700" font-size="12" x="399.687" y="11.1387">Oct 2025</text><line x1="572" y1="0" x2="572" y2="16" stroke="#C0C0C0"/><text font-family="Arial" font-weight="700" font-size="12" x="500.157" y="11.1387">Nov 2025</text><line x1="0" y1="0" x2="572" y2="0" stroke="#C0C0C0"/><line x1="0" y1="16" x2="572" y2="16" stroke="#C0C0C0"/><line x1="0" y1="27" x2="572" y2="27" stroke="#C0C0C0"/><path d="M-1 66.8047 5 66.8047 5 76.6094-4 76.6094-4 85.0117 1 85.0117" stroke="#181818" stroke-width="1.5" fill="none"/><path d="M0 81.0117 4 85.0117 0 89.0117 0 81.0117Z" stroke="#181818" fill="#181818"/><path d="M-1 66.8047 5 66.8047 5 143.023-4 143.023-4 151.426 1 151.426" stroke="#181818" stroke-width="1.5" fill="none"/><path d="M0 147.426 4 151.426 0 155.426 0 147.426Z" stroke="#181818" fill="#181818"/><path d="M32 157.828 32 168.23 37 168.23" stroke="#181818" stroke-width="1.5" fill="none"/><path d="M36 164.23 40 168.23 36 172.23 36 164.23Z" stroke="#181818" fill="#181818"/><path d="M32 157.828 32 185.035 37 185.035" stroke="#181818" stroke-width="1.5" fill="none"/><path d="M36 181.035 40 185.035 36 189.035 36 181.035Z" stroke="#181818" fill="#181818"/><path d="M14 100.414 14 251.449 21 251.449" stroke="#181818" stroke-width="1.5" fill="none"/><path d="M20 247.449 24 251.449 20 255.449 20 247.449Z" stroke="#181818" fill="#181818"/><path d="M64 257.852 64 268.254 77 268.254" stroke="#181818" stroke-width="1.5" fill="none"/><path d="M76 264.254 80 268.254 76 272.254 76 264.254Z" stroke="#181818" fill="#181818"/><path d="M64 257.852 64 285.059 77 285.059" stroke="#181818" stroke-width="1.5" fill="none"/><path d="M76 281.059 80 285.059 76 289.059 76 281.059Z" stroke="#181818" fill="#181818"/><path d="M14 100.414 14 351.473 21 351.473" stroke="#181818" stroke-width="1.5" fill="none"/><path d="M20 347.473 24 351.473 20 355.473 20 347.473Z" stroke="#181818" fill="#181818"/><path d="M36 357.875 36 368.277 49 368.277" stroke="#181818" stroke-width="1.5" fill="none"/><path d="M48 364.277 52 368.277 48 372.277 48 364.277Z" stroke="#181818" fill="#181818"/><path d="M64 374.68 64 385.082 77 385.082" stroke="#181818" stroke-width="1.5" fill="none"/><path d="M76 381.082 80 385.082 76 389.082 76 381.082Z" stroke="#181818" fill="#181818"/><path d="M91 400.484 97 400.484 97 443.094 88 443.094 88 451.496 93 451.496" stroke="#181818" stroke-width="1.5" fill="none"/><path d="M92 447.496 96 451.496 92 455.496 92 447.496Z" stroke="#181818" fill="#181818"/><path d="M132 457.898 132 468.301 137 468.301" stroke="#181818" stroke-width="1.5" fill="none"/><path d="M136 464.301 140 468.301 136 472.301 136 464.301Z" stroke="#181818" fill="#181818"/><path d="M160 474.703 160 485.105 165 485.105" stroke="#181818" stroke-width="1.5" fill="none"/><path d="M164 481.105 168 485.105 164 489.105 164 481.105Z" stroke="#181818" fill="#181818"/><path d="M132 457.898 132 501.91 137 501.91" stroke="#181818" stroke-width="1.5" fill="none"/><path d="M136 497.91 140 501.91 136 505.91 136 497.91Z" stroke="#181818" fill="#181818"/><path d="M98 300.461 98 568.324 105 568.324" stroke="#181818" stroke-width="1.5" fill="none"/><path d="M104 564.324 108 568.324 104 572.324 104 564.324Z" stroke="#181818" fill="#181818"/><path d="M148 574.727 148 585.129 161 585.129" stroke="#181818" stroke-width="1.5" fill="none"/><path d="M160 581.129 164 585.129 160 589.129 160 581.129Z" stroke="#181818" fill="#181818"/><path d="M168 591.531 168 601.934 173 601.934" stroke="#181818" stroke-width="1.5" fill="none"/><path d="M172 597.934 176 601.934 172 605.934 172 597.934Z" stroke="#181818" fill="#181818"/><path d="M199 617.336 205 617.336 205 659.945 196 659.945 196 668.348 201 668.348" stroke="#181818" stroke-width="1.5" fill="none"/><path d="M200 664.348 204 668.348 200 672.348 200 664.348Z" stroke="#181818" fill="#181818"/><path d="M199 517.312 205 517.312 205 659.945 196 659.945 196 668.348 201 668.348" stroke="#181818" stroke-width="1.5" fill="none"/><path d="M200 664.348 204 668.348 200 672.348 200 664.348Z" stroke="#181818" fill="#181818"/><path d="M216 674.75 216 685.152 221 685.152" stroke="#181818" stroke-width="1.5" fill="none"/><path d="M220 681.152 224 685.152 220 689.152 220 681.152Z" stroke="#181818" fill="#181818"/><path d="M230 685.152 236 685.152 236 693.555 224 693.555 224 701.957 229 701.957" stroke="#181818" stroke-width="1.5" fill="none"/><path d="M228 697.957 232 701.957 228 705.957 228 697.957Z" stroke="#181818" fill="#181818"/><path d="M238 717.359 238 768.371 245 768.371" stroke="#181818" stroke-width="1.5" fill="none"/><path d="M244 764.371 248 768.371 244 772.371 244 764.371Z" stroke="#181818" fill="#181818"/><path d="M238 717.359 238 785.176 245 785.176" stroke="#181818" stroke-width="1.5" fill="none"/><path d="M244 781.176 248 785.176 244 789.176 244 781.176Z" stroke="#181818" fill="#181818"/><path d="M230 685.152 236 685.152 236 793.578 224 793.578 224 801.981 229 801.981" stroke="#181818" stroke-width="1.5" fill="none"/><path d="M228 797.981 232 801.981 228 805.981 228 797.981Z" stroke="#181818" fill="#181818"/><path d="M266 817.383 266 868.394 273 868.394" stroke="#181818" stroke-width="1.5" fill="none"/><path d="M272 864.394 276 868.394 272 872.394 272 864.394Z" stroke="#181818" fill="#181818"/><path d="M288 874.797 288 885.199 301 885.199" stroke="#181818" stroke-width="1.5" fill="none"/><path d="M300 881.199 304 885.199 300 889.199 300 881.199Z" stroke="#181818" fill="#181818"/><path d="M288 874.797 288 902.004 301 902.004" stroke="#181818" stroke-width="1.5" fill="none"/><path d="M300 898.004 304 902.004 300 906.004 300 898.004Z" stroke="#181818" fill="#181818"/><path d="M266 817.383 266 918.809 273 918.809" stroke="#181818" stroke-width="1.5" fill="none"/><path d="M272 914.809 276 918.809 272 922.809 272 914.809Z" stroke="#181818" fill="#181818"/><path d="M322 934.211 322 985.223 329 985.223" stroke="#181818" stroke-width="1.5" fill="none"/><path d="M328 981.223 332 985.223 328 989.223 328 981.223Z" stroke="#181818" fill="#181818"/><path d="M360 991.625 360 1002.03 365 1002.03" stroke="#181818" stroke-width="1.5" fill="none"/><path d="M364 998.027 368 1002.03 364 1006.03 364 998.027Z" stroke="#181818" fill="#181818"/><path d="M396 1008.43 396 1018.83 401 1018.83" stroke="#181818" stroke-width="1.5" fill="none"/><path d="M400 1014.83 404 1018.83 400 1022.83 400 1014.83Z" stroke="#181818" fill="#181818"/><path d="M452 1025.23 452 1035.64 457 1035.64" stroke="#181818" stroke-width="1.5" fill="none"/><path d="M456 1031.64 460 1035.64 456 1039.64 456 1031.64Z" stroke="#181818" fill="#181818"/><path d="M496 1042.04 496 1052.44 501 1052.44" stroke="#181818" stroke-width="1.5" fill="none"/><path d="M500 1048.44 504 1052.44 500 1056.44 500 1048.44Z" stroke="#181818" fill="#181818"/><line x1="0" y1="43.4023" x2="5" y2="43.4023" stroke="#181818"/><line x1="143.67" y1="43.4023" x2="571" y2="43.4023" stroke="#181818"/><path d="M2 61.8047 7 66.8047 2 71.8047-3 66.8047Z" stroke="#000000"/><rect x="6" y="78.6094" width="8" height="12.8047" fill="#E2E2F0"/><rect x="6" y="78.6094" width="8" height="12.8047" stroke="#181818" fill="none"/><path d="M14 95.4141 19 100.414 14 105.414 9 100.414Z" stroke="#000000"/><line x1="0" y1="126.621" x2="5" y2="126.621" stroke="#181818"/><line x1="188.433" y1="126.621" x2="571" y2="126.621" stroke="#181818"/><rect x="6" y="145.023" width="11" height="12.8047" fill="#E2E2F0"/><path d="M16 157.828 6 157.828 6 145.023 16 145.023" stroke="#181818" fill="none"/><rect x="24" y="145.023" width="14" height="12.8047" fill="#E2E2F0"/><path d="M24 145.023 38 145.023 38 157.828 24 157.828" stroke="#181818" fill="none"/><line x1="19" y1="145.023" x2="21" y2="145.023" stroke="#181818" stroke-dasharray="2 3"/><line x1="19" y1="157.828" x2="21" y2="157.828" stroke="#181818" stroke-dasharray="2 3"/><rect x="42" y="161.828" width="3" height="12.8047" fill="#E2E2F0"/><path d="M44 174.633 42 174.633 42 161.828 44 161.828" stroke="#181818" fill="none"/><rect x="52" y="161.828" width="21" height="12.8047" fill="#E2E2F0"/><line x1="52" y1="161.828" x2="72" y2="161.828" stroke="#181818"/><line x1="52" y1="174.633" x2="72" y2="174.633" stroke="#181818"/><rect x="80" y="161.828" width="14" height="12.8047" fill="#E2E2F0"/><path d="M80 161.828 94 161.828 94 174.633 80 174.633" stroke="#181818" fill="none"/><line x1="47" y1="161.828" x2="49" y2="161.828" stroke="#181818" stroke-dasharray="2 3"/><line x1="47" y1="174.633" x2="49" y2="174.633" stroke="#181818" stroke-dasharray="2 3"/><line x1="75" y1="161.828" x2="77" y2="161.828" stroke="#181818" stroke-dasharray="2 3"/><line x1="75" y1="174.633" x2="77" y2="174.633" stroke="#181818" stroke-dasharray="2 3"/><rect x="42" y="178.633" width="3" height="12.8047" fill="#E2E2F0"/><path d="M44 191.438 42 191.438 42 178.633 44 178.633" stroke="#181818" fill="none"/><rect x="52" y="178.633" width="14" height="12.8047" fill="#E2E2F0"/><path d="M52 178.633 66 178.633 66 191.438 52 191.438" stroke="#181818" fill="none"/><line x1="47" y1="178.633" x2="49" y2="178.633" stroke="#181818" stroke-dasharray="2 3"/><line x1="47" y1="191.438" x2="49" y2="191.438" stroke="#181818" stroke-dasharray="2 3"/><path d="M94 195.438 99 200.438 94 205.438 89 200.438Z" stroke="#000000"/><line x1="0" y1="226.644" x2="5" y2="226.644" stroke="#181818"/><line x1="148.198" y1="226.644" x2="571" y2="226.644" stroke="#181818"/><rect x="26" y="245.047" width="19" height="12.8047" fill="#E2E2F0"/><path d="M44 257.852 26 257.852 26 245.047 44 245.047" stroke="#181818" fill="none"/><rect x="52" y="245.047" width="18" height="12.8047" fill="#E2E2F0"/><path d="M52 245.047 70 245.047 70 257.852 52 257.852" stroke="#181818" fill="none"/><line x1="47" y1="245.047" x2="49" y2="245.047" stroke="#181818" stroke-dasharray="2 3"/><line x1="47" y1="257.852" x2="49" y2="257.852" stroke="#181818" stroke-dasharray="2 3"/><rect x="82" y="261.852" width="16" height="12.8047" fill="#E2E2F0"/><rect x="82" y="261.852" width="16" height="12.8047" stroke="#181818" fill="none"/><rect x="82" y="278.656" width="16" height="12.8047" fill="#E2E2F0"/><rect x="82" y="278.656" width="16" height="12.8047" stroke="#181818" fill="none"/><path d="M98 295.461 103 300.461 98 305.461 93 300.461Z" stroke="#000000"/><line x1="0" y1="326.668" x2="5" y2="326.668" stroke="#181818"/><line x1="129.496" y1="326.668" x2="571" y2="326.668" stroke="#181818"/><rect x="26" y="345.07" width="16" height="12.8047" fill="#E2E2F0"/><rect x="26" y="345.07" width="16" height="12.8047" stroke="#181818" fill="none"/><rect x="54" y="361.875" width="16" height="12.8047" fill="#E2E2F0"/><rect x="54" y="361.875" width="16" height="12.8047" stroke="#181818" fill="none"/><rect x="82" y="378.68" width="12" height="12.8047" fill="#E2E2F0"/><rect x="82" y="378.68" width="12" height="12.8047" stroke="#181818" fill="none"/><path d="M94 395.484 99 400.484 94 405.484 89 400.484Z" stroke="#000000"/><line x1="0" y1="426.691" x2="5" y2="426.691" stroke="#181818"/><line x1="205.647" y1="426.691" x2="571" y2="426.691" stroke="#181818"/><rect x="98" y="445.094" width="3" height="12.8047" fill="#E2E2F0"/><path d="M100 457.898 98 457.898 98 445.094 100 445.094" stroke="#181818" fill="none"/><rect x="108" y="445.094" width="21" height="12.8047" fill="#E2E2F0"/><line x1="108" y1="445.094" x2="128" y2="445.094" stroke="#181818"/><line x1="108" y1="457.898" x2="128" y2="457.898" stroke="#181818"/><rect x="136" y="445.094" width="2" height="12.8047" fill="#E2E2F0"/><path d="M136 445.094 138 445.094 138 457.898 136 457.898" stroke="#181818" fill="none"/><line x1="103" y1="445.094" x2="105" y2="445.094" stroke="#181818" stroke-dasharray="2 3"/><line x1="103" y1="457.898" x2="105" y2="457.898" stroke="#181818" stroke-dasharray="2 3"/><line x1="131" y1="445.094" x2="133" y2="445.094" stroke="#181818" stroke-dasharray="2 3"/><line x1="131" y1="457.898" x2="133" y2="457.898" stroke="#181818" stroke-dasharray="2 3"/><rect x="142" y="461.898" width="15" height="12.8047" fill="#E2E2F0"/><path d="M156 474.703 142 474.703 142 461.898 156 461.898" stroke="#181818" fill="none"/><rect x="164" y="461.898" width="2" height="12.8047" fill="#E2E2F0"/><path d="M164 461.898 166 461.898 166 474.703 164 474.703" stroke="#181818" fill="none"/><line x1="159" y1="461.898" x2="161" y2="461.898" stroke="#181818" stroke-dasharray="2 3"/><line x1="159" y1="474.703" x2="161" y2="474.703" stroke="#181818" stroke-dasharray="2 3"/><rect x="170" y="478.703" width="15" height="12.8047" fill="#E2E2F0"/><path d="M184 491.508 170 491.508 170 478.703 184 478.703" stroke="#181818" fill="none"/><rect x="192" y="478.703" width="10" height="12.8047" fill="#E2E2F0"/><path d="M192 478.703 202 478.703 202 491.508 192 491.508" stroke="#181818" fill="none"/><line x1="187" y1="478.703" x2="189" y2="478.703" stroke="#181818" stroke-dasharray="2 3"/><line x1="187" y1="491.508" x2="189" y2="491.508" stroke="#181818" stroke-dasharray="2 3"/><rect x="142" y="495.508" width="15" height="12.8047" fill="#E2E2F0"/><path d="M156 508.312 142 508.312 142 495.508 156 495.508" stroke="#181818" fill="none"/><rect x="164" y="495.508" width="2" height="12.8047" fill="#E2E2F0"/><path d="M164 495.508 166 495.508 166 508.312 164 508.312" stroke="#181818" fill="none"/><line x1="159" y1="495.508" x2="161" y2="495.508" stroke="#181818" stroke-dasharray="2 3"/><line x1="159" y1="508.312" x2="161" y2="508.312" stroke="#181818" stroke-dasharray="2 3"/><path d="M202 512.312 207 517.312 202 522.312 197 517.312Z" stroke="#000000"/><line x1="0" y1="543.519" x2="5" y2="543.519" stroke="#181818"/><line x1="228.485" y1="543.519" x2="571" y2="543.519" stroke="#181818"/><rect x="110" y="561.922" width="19" height="12.8047" fill="#E2E2F0"/><path d="M128 574.727 110 574.727 110 561.922 128 561.922" stroke="#181818" fill="none"/><rect x="136" y="561.922" width="18" height="12.8047" fill="#E2E2F0"/><path d="M136 561.922 154 561.922 154 574.727 136 574.727" stroke="#181818" fill="none"/><line x1="131" y1="561.922" x2="133" y2="561.922" stroke="#181818" stroke-dasharray="2 3"/><line x1="131" y1="574.727" x2="133" y2="574.727" stroke="#181818" stroke-dasharray="2 3"/><rect x="166" y="578.727" width="8" height="12.8047" fill="#E2E2F0"/><rect x="166" y="578.727" width="8" height="12.8047" stroke="#181818" fill="none"/><rect x="178" y="595.531" width="7" height="12.8047" fill="#E2E2F0"/><path d="M184 608.336 178 608.336 178 595.531 184 595.531" stroke="#181818" fill="none"/><rect x="192" y="595.531" width="10" height="12.8047" fill="#E2E2F0"/><path d="M192 595.531 202 595.531 202 608.336 192 608.336" stroke="#181818" fill="none"/><line x1="187" y1="595.531" x2="189" y2="595.531" stroke="#181818" stroke-dasharray="2 3"/><line x1="187" y1="608.336" x2="189" y2="608.336" stroke="#181818" stroke-dasharray="2 3"/><path d="M202 612.336 207 617.336 202 622.336 197 617.336Z" stroke="#000000"/><line x1="0" y1="643.543" x2="5" y2="643.543" stroke="#181818"/><line x1="146.919" y1="643.543" x2="571" y2="643.543" stroke="#181818"/><rect x="206" y="661.945" width="7" height="12.8047" fill="#E2E2F0"/><path d="M212 674.75 206 674.75 206 661.945 212 661.945" stroke="#181818" fill="none"/><rect x="220" y="661.945" width="2" height="12.8047" fill="#E2E2F0"/><path d="M220 661.945 222 661.945 222 674.75 220 674.75" stroke="#181818" fill="none"/><line x1="215" y1="661.945" x2="217" y2="661.945" stroke="#181818" stroke-dasharray="2 3"/><line x1="215" y1="674.75" x2="217" y2="674.75" stroke="#181818" stroke-dasharray="2 3"/><rect x="226" y="678.75" width="4" height="12.8047" fill="#E2E2F0"/><rect x="226" y="678.75" width="4" height="12.8047" stroke="#181818" fill="none"/><rect x="234" y="695.555" width="4" height="12.8047" fill="#E2E2F0"/><rect x="234" y="695.555" width="4" height="12.8047" stroke="#181818" fill="none"/><path d="M238 712.359 243 717.359 238 722.359 233 717.359Z" stroke="#000000"/><line x1="0" y1="743.566" x2="5" y2="743.566" stroke="#181818"/><line x1="134.448" y1="743.566" x2="571" y2="743.566" stroke="#181818"/><rect x="250" y="761.969" width="16" height="12.8047" fill="#E2E2F0"/><rect x="250" y="761.969" width="16" height="12.8047" stroke="#181818" fill="none"/><rect x="250" y="778.773" width="16" height="12.8047" fill="#E2E2F0"/><rect x="250" y="778.773" width="16" height="12.8047" stroke="#181818" fill="none"/><rect x="234" y="795.578" width="7" height="12.8047" fill="#E2E2F0"/><path d="M240 808.383 234 808.383 234 795.578 240 795.578" stroke="#181818" fill="none"/><rect x="248" y="795.578" width="10" height="12.8047" fill="#E2E2F0"/><path d="M248 795.578 258 795.578 258 808.383 248 808.383" stroke="#181818" fill="none"/><line x1="243" y1="795.578" x2="245" y2="795.578" stroke="#181818" stroke-dasharray="2 3"/><line x1="243" y1="808.383" x2="245" y2="808.383" stroke="#181818" stroke-dasharray="2 3"/><path d="M266 812.383 271 817.383 266 822.383 261 817.383Z" stroke="#000000"/><line x1="0" y1="843.59" x2="5" y2="843.59" stroke="#181818"/><line x1="148.966" y1="843.59" x2="571" y2="843.59" stroke="#181818"/><rect x="278" y="861.992" width="16" height="12.8047" fill="#E2E2F0"/><rect x="278" y="861.992" width="16" height="12.8047" stroke="#181818" fill="none"/><rect x="306" y="878.797" width="19" height="12.8047" fill="#E2E2F0"/><path d="M324 891.602 306 891.602 306 878.797 324 878.797" stroke="#181818" fill="none"/><rect x="332" y="878.797" width="18" height="12.8047" fill="#E2E2F0"/><path d="M332 878.797 350 878.797 350 891.602 332 891.602" stroke="#181818" fill="none"/><line x1="327" y1="878.797" x2="329" y2="878.797" stroke="#181818" stroke-dasharray="2 3"/><line x1="327" y1="891.602" x2="329" y2="891.602" stroke="#181818" stroke-dasharray="2 3"/><rect x="306" y="895.602" width="19" height="12.8047" fill="#E2E2F0"/><path d="M324 908.406 306 908.406 306 895.602 324 895.602" stroke="#181818" fill="none"/><rect x="332" y="895.602" width="18" height="12.8047" fill="#E2E2F0"/><path d="M332 895.602 350 895.602 350 908.406 332 908.406" stroke="#181818" fill="none"/><line x1="327" y1="895.602" x2="329" y2="895.602" stroke="#181818" stroke-dasharray="2 3"/><line x1="327" y1="908.406" x2="329" y2="908.406" stroke="#181818" stroke-dasharray="2 3"/><rect x="278" y="912.406" width="19" height="12.8047" fill="#E2E2F0"/><path d="M296 925.211 278 925.211 278 912.406 296 912.406" stroke="#181818" fill="none"/><rect x="304" y="912.406" width="18" height="12.8047" fill="#E2E2F0"/><path d="M304 912.406 322 912.406 322 925.211 304 925.211" stroke="#181818" fill="none"/><line x1="299" y1="912.406" x2="301" y2="912.406" stroke="#181818" stroke-dasharray="2 3"/><line x1="299" y1="925.211" x2="301" y2="925.211" stroke="#181818" stroke-dasharray="2 3"/><path d="M322 929.211 327 934.211 322 939.211 317 934.211Z" stroke="#000000"/><line x1="0" y1="960.418" x2="5" y2="960.418" stroke="#181818"/><line x1="260.282" y1="960.418" x2="571" y2="960.418" stroke="#181818"/><rect x="334" y="978.82" width="19" height="12.8047" fill="#E2E2F0"/><path d="M352 991.625 334 991.625 334 978.82 352 978.82" stroke="#181818" fill="none"/><rect x="360" y="978.82" width="6" height="12.8047" fill="#E2E2F0"/><path d="M360 978.82 366 978.82 366 991.625 360 991.625" stroke="#181818" fill="none"/><line x1="355" y1="978.82" x2="357" y2="978.82" stroke="#181818" stroke-dasharray="2 3"/><line x1="355" y1="991.625" x2="357" y2="991.625" stroke="#181818" stroke-dasharray="2 3"/><rect x="370" y="995.625" width="11" height="12.8047" fill="#E2E2F0"/><path d="M380 1008.43 370 1008.43 370 995.625 380 995.625" stroke="#181818" fill="none"/><rect x="388" y="995.625" width="14" height="12.8047" fill="#E2E2F0"/><path d="M388 995.625 402 995.625 402 1008.43 388 1008.43" stroke="#181818" fill="none"/><line x1="383" y1="995.625" x2="385" y2="995.625" stroke="#181818" stroke-dasharray="2 3"/><line x1="383" y1="1008.43" x2="385" y2="1008.43" stroke="#181818" stroke-dasharray="2 3"/><rect x="406" y="1012.43" width="3" height="12.8047" fill="#E2E2F0"/><path d="M408 1025.23 406 1025.23 406 1012.43 408 1012.43" stroke="#181818" fill="none"/><rect x="416" y="1012.43" width="21" height="12.8047" fill="#E2E2F0"/><line x1="416" y1="1012.43" x2="436" y2="1012.43" stroke="#181818"/><line x1="416" y1="1025.23" x2="436" y2="1025.23" stroke="#181818"/><rect x="444" y="1012.43" width="14" height="12.8047" fill="#E2E2F0"/><path d="M444 1012.43 458 1012.43 458 1025.23 444 1025.23" stroke="#181818" fill="none"/><line x1="411" y1="1012.43" x2="413" y2="1012.43" stroke="#181818" stroke-dasharray="2 3"/><line x1="411" y1="1025.23" x2="413" y2="1025.23" stroke="#181818" stroke-dasharray="2 3"/><line x1="439" y1="1012.43" x2="441" y2="1012.43" stroke="#181818" stroke-dasharray="2 3"/><line x1="439" y1="1025.23" x2="441" y2="1025.23" stroke="#181818" stroke-dasharray="2 3"/><rect x="462" y="1029.23" width="3" height="12.8047" fill="#E2E2F0"/><path d="M464 1042.04 462 1042.04 462 1029.23 464 1029.23" stroke="#181818" fill="none"/><rect x="472" y="1029.23" width="21" height="12.8047" fill="#E2E2F0"/><line x1="472" y1="1029.23" x2="492" y2="1029.23" stroke="#181818"/><line x1="472" y1="1042.04" x2="492" y2="1042.04" stroke="#181818"/><rect x="500" y="1029.23" width="2" height="12.8047" fill="#E2E2F0"/><path d="M500 1029.23 502 1029.23 502 1042.04 500 1042.04" stroke="#181818" fill="none"/><line x1="467" y1="1029.23" x2="469" y2="1029.23" stroke="#181818" stroke-dasharray="2 3"/><line x1="467" y1="1042.04" x2="469" y2="1042.04" stroke="#181818" stroke-dasharray="2 3"/><line x1="495" y1="1029.23" x2="497" y2="1029.23" stroke="#181818" stroke-dasharray="2 3"/><line x1="495" y1="1042.04" x2="497" y2="1042.04" stroke="#181818" stroke-dasharray="2 3"/><rect x="506" y="1046.04" width="4" height="12.8047" fill="#E2E2F0"/><rect x="506" y="1046.04" width="4" height="12.8047" stroke="#181818" fill="none"/><path d="M570 1062.84 575 1067.84 570 1072.84 565 1067.84Z" stroke="#000000"/><text font-family="Arial" font-size="11" x="10" y="47.2104">Phase 1 - Setup &amp; Spec</text><text font-family="Arial" font-size="11" x="10" y="72.0151">Kickoff</text><text font-family="Arial" font-size="11" x="18" y="88.8198">WBS &amp; Risk &amp; Baseline</text><text font-family="Arial" font-size="11" x="22" y="105.624">Spec sign-off</text><text font-family="Arial" font-size="11" x="10" y="130.429">Phase 2 - Research &amp; Baselines</text><text font-family="Arial" font-size="11" x="42" y="155.234">Literature review</text><text font-family="Arial" font-size="11" x="98" y="172.039">Baselines JT/min-norm/MPC</text><text font-family="Arial" font-size="11" x="70" y="188.843">Simulation scenes</text><text font-family="Arial" font-size="11" x="102" y="205.648">Baselines ready</text><text font-family="Arial" font-size="11" x="10" y="230.453">Phase 3 - Mechanical v1</text><text font-family="Arial" font-size="11" x="74" y="255.257">CAD v1</text><text font-family="Arial" font-size="11" x="102" y="272.062">Stress and tolerance checks</text><text font-family="Arial" font-size="11" x="102" y="288.867">BOM and sourcing v1</text><text font-family="Arial" font-size="11" x="106" y="305.671">Mech CAD v1 freeze</text><text font-family="Arial" font-size="11" x="10" y="330.476">Phase 4 - Electronics</text><text font-family="Arial" font-size="11" x="46" y="355.281">Power RS485 harness design</text><text font-family="Arial" font-size="11" x="74" y="372.085">PCB and wiring maps</text><text font-family="Arial" font-size="11" x="98" y="388.89">Safety circuits and test plan</text><text font-family="Arial" font-size="11" x="102" y="405.695">EE design ready</text><text font-family="Arial" font-size="11" x="10" y="430.5">Phase 5 - Firmware and Control v0</text><text font-family="Arial" font-size="11" x="142" y="455.304">Stepper cfg and comms bring-up</text><text font-family="Arial" font-size="11" x="170" y="472.109">Trajectory server Flask</text><text font-family="Arial" font-size="11" x="206" y="488.914">IK DLS prototype</text><text font-family="Arial" font-size="11" x="170" y="505.718">ESP32 Master Slave link</text><text font-family="Arial" font-size="11" x="210" y="522.523">Control v0 ready</text><text font-family="Arial" font-size="11" x="10" y="547.328">Phase 6 - 3D Printing and Assembly v1</text><text font-family="Arial" font-size="11" x="158" y="572.132">Print critical parts PETG</text><text font-family="Arial" font-size="11" x="178" y="588.937">Inserts preparation</text><text font-family="Arial" font-size="11" x="206" y="605.742">Assembly v1</text><text font-family="Arial" font-size="11" x="210" y="622.546">Mech v1 assembled</text><text font-family="Arial" font-size="11" x="10" y="647.351">Phase 7 - Integration v0</text><text font-family="Arial" font-size="11" x="226" y="672.156">Wiring and bring-up</text><text font-family="Arial" font-size="11" x="234" y="688.96">First motion</text><text font-family="Arial" font-size="11" x="242" y="705.765">Basic safety tests</text><text font-family="Arial" font-size="11" x="246" y="722.57">v0 integrated motion</text><text font-family="Arial" font-size="11" x="10" y="747.375">Phase 8 - Features v1</text><text font-family="Arial" font-size="11" x="270" y="772.179">Operability avoidance</text><text font-family="Arial" font-size="11" x="270" y="788.984">Quick-swap end-effector v1</text><text font-family="Arial" font-size="11" x="262" y="805.789">UI refinement and logging</text><text font-family="Arial" font-size="11" x="274" y="822.593">Feature v1 complete</text><text font-family="Arial" font-size="11" x="10" y="847.398">Phase 9 - Verification v1</text><text font-family="Arial" font-size="11" x="298" y="872.203">Repeatability spec and rig</text><text font-family="Arial" font-size="11" x="354" y="889.007">Payload-speed envelope</text><text font-family="Arial" font-size="11" x="354" y="905.812">Energy thermal profiling</text><text font-family="Arial" font-size="11" x="326" y="922.617">Baseline AB vs JT min-norm MPC</text><text font-family="Arial" font-size="11" x="330" y="939.421">Interim metrics achieved</text><text font-family="Arial" font-size="11" x="10" y="964.226">Phase 10 - Interim Deliverables (to Midterm)</text><text font-family="Arial" font-size="11" x="370" y="989.031">Interim report drafting</text><text font-family="Arial" font-size="11" x="406" y="1005.84">Interim demo prep</text><text font-family="Arial" font-size="11" x="462" y="1022.64">Buffer and bug fixes</text><text font-family="Arial" font-size="11" x="506" y="1039.44">User dry-runs and QA log</text><text font-family="Arial" font-size="11" x="514" y="1056.25">Midterm rehearsal</text><text font-family="Arial" font-size="11" x="578" y="1073.05">Midterm defense</text><line x1="0" y1="1077.65" x2="572" y2="1077.65" stroke="#C0C0C0"/><line x1="0" y1="1077.65" x2="0" y2="1093.65" stroke="#C0C0C0"/><line x1="124" y1="1077.65" x2="124" y2="1093.65" stroke="#C0C0C0"/><text font-family="Arial" font-weight="700" font-size="12" x="34.6514" y="1088.79">Jul 2025</text><line x1="248" y1="1077.65" x2="248" y2="1093.65" stroke="#C0C0C0"/><text font-family="Arial" font-weight="700" font-size="12" x="154.002" y="1088.79">Aug 2025</text><line x1="368" y1="1077.65" x2="368" y2="1093.65" stroke="#C0C0C0"/><text font-family="Arial" font-weight="700" font-size="12" x="276.526" y="1088.79">Sep 2025</text><line x1="492" y1="1077.65" x2="492" y2="1093.65" stroke="#C0C0C0"/><text font-family="Arial" font-weight="700" font-size="12" x="399.687" y="1088.79">Oct 2025</text><line x1="572" y1="1077.65" x2="572" y2="1093.65" stroke="#C0C0C0"/><text font-family="Arial" font-weight="700" font-size="12" x="500.157" y="1088.79">Nov 2025</text><line x1="0" y1="1093.65" x2="572" y2="1093.65" stroke="#C0C0C0"/></g></svg>