<svg viewBox="0 0 2375 1077" xmlns="http://www.w3.org/2000/svg" xmlns:xlink="http://www.w3.org/1999/xlink" id="图层_1" overflow="hidden"><defs/><line x1="1057" y1="122" x2="2101" y2="122" stroke="#FF0000" stroke-width="4" stroke-miterlimit="10" fill="none"/><line x1="1057" y1="263" x2="2077.12" y2="263" stroke="#0000FF" stroke-width="4" stroke-miterlimit="10" fill="none"/><path d="M2065.89 277.813 2072.18 263 2065.89 248.187 2101 263 2065.89 277.813Z" fill="#0000FF"/><line x1="1057" y1="216" x2="2077.12" y2="216" stroke="#009245" stroke-width="4" stroke-miterlimit="10" fill="none"/><path d="M2065.89 230.813 2072.18 216 2065.89 201.187 2101 216 2065.89 230.813Z" fill="#009245"/><line x1="1057" y1="169" x2="2101" y2="169" stroke="#000000" stroke-width="4" stroke-miterlimit="10" fill="none"/><line x1="1676" y1="608" x2="1724" y2="608" stroke="#FF0000" stroke-width="4" stroke-miterlimit="10" fill="none"/><line x1="1724" y1="122" x2="1724" y2="610" stroke="#FF0000" stroke-width="4" stroke-miterlimit="10" fill="none"/><rect x="1173" y="528" width="445" height="445" stroke="#000000" stroke-width="7" stroke-miterlimit="10" fill="none"/><rect x="1560.5" y="577.5" width="116" height="340" stroke="#000000" stroke-width="7" stroke-miterlimit="10" fill="#FFFFFF"/><path d="M1266.05 705.016C1270.13 704.995 1274.02 706.702 1276.77 709.715 1279.8 712.856 1281.43 717.084 1281.31 721.445 1281.45 725.902 1279.8 730.232 1276.74 733.469 1270.94 739.6 1261.27 739.87 1255.14 734.074 1254.97 733.915 1254.81 733.752 1254.65 733.586 1251.61 730.319 1250 725.973 1250.18 721.516 1250.02 716.845 1251.9 712.336 1255.34 709.164 1258.23 706.435 1262.07 704.945 1266.05 705.016ZM1265.6 706.727C1262.95 706.638 1260.41 707.812 1258.76 709.891 1256.62 712.516 1255.55 716.359 1255.55 721.422 1255.55 726.609 1256.66 730.602 1258.88 733.398 1260.49 735.48 1263 736.665 1265.63 736.586 1268.5 736.638 1271.23 735.347 1273.02 733.094 1274.97 730.766 1275.94 727.094 1275.94 722.078 1275.94 716.641 1274.87 712.586 1272.73 709.914 1270.99 707.781 1268.35 706.598 1265.6 706.727Z"/><path d="M1283.11 718.188 1289.72 715.516 1290.61 715.516 1290.61 720.531C1291.43 718.982 1292.56 717.627 1293.95 716.559 1294.98 715.828 1296.21 715.431 1297.48 715.422 1299.57 715.391 1301.56 716.325 1302.87 717.953 1304.71 720.227 1305.65 723.095 1305.52 726.016 1305.64 729.369 1304.5 732.647 1302.33 735.203 1300.69 737.139 1298.26 738.233 1295.72 738.18 1294.7 738.203 1293.68 738.036 1292.72 737.688 1291.94 737.351 1291.22 736.874 1290.61 736.281L1290.61 742.82C1290.55 743.762 1290.64 744.708 1290.88 745.621 1291.07 746.035 1291.41 746.37 1291.82 746.57 1292.59 746.86 1293.42 746.98 1294.24 746.922L1294.24 747.789 1282.99 747.789 1282.99 746.922 1283.58 746.922C1284.34 746.959 1285.11 746.789 1285.78 746.43 1286.1 746.236 1286.34 745.943 1286.47 745.598 1286.7 744.642 1286.78 743.659 1286.72 742.68L1286.72 722.383C1286.76 721.496 1286.7 720.606 1286.53 719.734 1286.43 719.394 1286.22 719.098 1285.93 718.891 1285.6 718.687 1285.21 718.589 1284.82 718.609 1284.33 718.635 1283.85 718.746 1283.39 718.938ZM1290.61 721.914 1290.61 729.93C1290.57 731.074 1290.64 732.221 1290.82 733.352 1291.07 734.307 1291.64 735.149 1292.43 735.742 1293.35 736.453 1294.49 736.818 1295.65 736.773 1297.14 736.81 1298.55 736.13 1299.45 734.945 1300.82 732.983 1301.49 730.611 1301.34 728.219 1301.34 724.938 1300.63 722.414 1299.19 720.648 1298.35 719.513 1297.03 718.836 1295.63 718.82 1294.85 718.827 1294.09 719.02 1293.4 719.383 1292.35 720.087 1291.41 720.94 1290.61 721.914Z"/><path d="M1312.27 724.141C1312.09 726.841 1312.92 729.51 1314.59 731.641 1315.91 733.338 1317.94 734.339 1320.09 734.359 1321.41 734.388 1322.7 733.98 1323.76 733.199 1324.99 732.148 1325.9 730.771 1326.38 729.227L1327.1 729.695C1326.75 731.885 1325.76 733.921 1324.24 735.543 1322.76 737.26 1320.58 738.226 1318.31 738.18 1315.77 738.196 1313.35 737.095 1311.69 735.168 1309.77 732.921 1308.79 730.023 1308.94 727.07 1308.94 723.398 1309.88 720.535 1311.76 718.48 1313.56 716.463 1316.15 715.336 1318.85 715.398 1321.08 715.324 1323.23 716.188 1324.78 717.777 1326.38 719.499 1327.22 721.794 1327.1 724.141ZM1312.27 722.781 1322.2 722.781C1322.2 721.792 1322.03 720.811 1321.71 719.875 1321.35 719.03 1320.74 718.312 1319.97 717.812 1319.25 717.33 1318.4 717.069 1317.54 717.062 1316.22 717.071 1314.97 717.617 1314.06 718.574 1312.98 719.716 1312.34 721.209 1312.27 722.781Z"/><path d="M1336.22 719.969C1338.74 716.938 1341.13 715.422 1343.42 715.422 1344.49 715.393 1345.55 715.7 1346.44 716.301 1347.39 717.037 1348.09 718.047 1348.45 719.195 1348.86 720.595 1349.03 722.052 1348.97 723.508L1348.97 732.672C1348.91 733.606 1349.02 734.543 1349.3 735.438 1349.47 735.825 1349.76 736.147 1350.13 736.352 1350.8 736.623 1351.53 736.735 1352.25 736.68L1352.25 737.523 1341.63 737.523 1341.63 736.68 1342.08 736.68C1342.81 736.746 1343.54 736.586 1344.18 736.223 1344.6 735.881 1344.89 735.406 1345.01 734.875 1345.1 734.144 1345.13 733.408 1345.1 732.672L1345.1 723.883C1345.2 722.424 1344.94 720.963 1344.34 719.629 1343.81 718.732 1342.81 718.218 1341.77 718.305 1339.92 718.305 1338.06 719.32 1336.22 721.352L1336.22 732.672C1336.15 733.578 1336.24 734.49 1336.48 735.367 1336.67 735.786 1336.98 736.135 1337.38 736.363 1338.13 736.633 1338.92 736.741 1339.71 736.68L1339.71 737.523 1329.09 737.523 1329.09 736.68 1329.56 736.68C1330.39 736.787 1331.22 736.476 1331.78 735.848 1332.25 734.86 1332.45 733.763 1332.35 732.672L1332.35 724.703C1332.4 723.131 1332.34 721.557 1332.18 719.992 1332.13 719.561 1331.94 719.159 1331.64 718.844 1331.36 718.629 1331.02 718.521 1330.66 718.539 1330.12 718.561 1329.59 718.68 1329.09 718.891L1328.74 718.047 1335.21 715.422 1336.22 715.422Z"/><path d="M1354.41 724.984 1366.52 724.984 1366.52 728.523 1354.41 728.523Z"/><path d="M1390.41 726.883 1378.1 726.883 1375.95 731.898C1375.51 732.764 1375.24 733.701 1375.15 734.664 1375.16 735.176 1375.42 735.65 1375.84 735.941 1376.76 736.433 1377.79 736.68 1378.83 736.656L1378.83 737.523 1368.82 737.523 1368.82 736.656C1369.74 736.578 1370.63 736.263 1371.4 735.742 1372.56 734.396 1373.46 732.846 1374.05 731.172L1385.23 705.016 1386.05 705.016 1397.11 731.453C1397.63 732.981 1398.46 734.387 1399.54 735.59 1400.4 736.274 1401.47 736.649 1402.57 736.656L1402.57 737.523 1390.03 737.523 1390.03 736.656C1390.93 736.695 1391.82 736.476 1392.6 736.023 1393.02 735.717 1393.27 735.23 1393.27 734.711 1393.15 733.578 1392.83 732.476 1392.33 731.453ZM1389.75 725.148 1384.36 712.305 1378.83 725.148Z"/><path d="M1412.95 722.641 1412.95 731.898C1412.95 733.898 1413.17 735.141 1413.61 735.625 1414.31 736.356 1415.3 736.734 1416.31 736.656L1417.52 736.656 1417.52 737.523 1403.91 737.523 1403.91 736.656 1405.1 736.656C1406.23 736.759 1407.32 736.26 1407.99 735.344 1408.4 734.246 1408.56 733.068 1408.45 731.898L1408.45 711.367C1408.45 709.367 1408.24 708.125 1407.82 707.641 1407.11 706.912 1406.12 706.535 1405.1 706.609L1403.91 706.609 1403.91 705.742 1415.56 705.742C1417.83 705.662 1420.1 705.959 1422.28 706.621 1423.92 707.202 1425.35 708.229 1426.43 709.586 1427.56 710.984 1428.16 712.735 1428.12 714.531 1428.21 716.91 1427.27 719.214 1425.55 720.859 1423.84 722.484 1421.42 723.297 1418.3 723.297 1417.47 723.293 1416.64 723.238 1415.81 723.133 1414.92 723.023 1413.97 722.859 1412.95 722.641ZM1412.95 721.305C1413.78 721.461 1414.52 721.578 1415.16 721.656 1415.7 721.728 1416.25 721.767 1416.8 721.773 1418.41 721.781 1419.94 721.093 1421 719.887 1422.21 718.553 1422.85 716.798 1422.77 715 1422.79 713.675 1422.5 712.365 1421.93 711.168 1421.43 710.057 1420.59 709.131 1419.54 708.52 1418.47 707.923 1417.25 707.62 1416.02 707.641 1414.99 707.674 1413.96 707.823 1412.95 708.086Z"/><path d="M1439.84 707.477 1439.84 720.039 1446.82 720.039C1448.63 720.039 1449.84 719.766 1450.45 719.219 1451.39 718.183 1451.88 716.818 1451.81 715.422L1452.68 715.422 1452.68 726.484 1451.81 726.484C1451.72 725.469 1451.5 724.468 1451.16 723.508 1450.85 722.937 1450.36 722.484 1449.77 722.219 1448.83 721.853 1447.83 721.694 1446.82 721.75L1439.84 721.75 1439.84 732.227C1439.79 733.087 1439.85 733.95 1440.02 734.793 1440.15 735.103 1440.39 735.359 1440.68 735.52 1441.25 735.744 1441.86 735.836 1442.46 735.789L1447.85 735.789C1449.17 735.841 1450.48 735.715 1451.77 735.414 1452.66 735.117 1453.46 734.611 1454.11 733.938 1455.31 732.631 1456.32 731.154 1457.09 729.555L1458.02 729.555 1455.28 737.523 1430.79 737.523 1430.79 736.656 1431.92 736.656C1432.66 736.658 1433.39 736.472 1434.05 736.117 1434.52 735.893 1434.89 735.488 1435.07 734.992 1435.3 733.986 1435.39 732.953 1435.34 731.922L1435.34 711.273C1435.34 709.258 1435.13 708.016 1434.73 707.547 1433.97 706.848 1432.94 706.507 1431.92 706.609L1430.79 706.609 1430.79 705.742 1455.28 705.742 1455.63 712.703 1454.72 712.703C1454.55 711.502 1454.18 710.338 1453.63 709.258 1453.2 708.609 1452.58 708.109 1451.86 707.828 1450.78 707.538 1449.67 707.42 1448.56 707.477Z"/><path d="M1478.72 719.922 1485.54 730.094C1486.72 732.035 1488.13 733.825 1489.75 735.426 1490.75 736.199 1491.97 736.63 1493.23 736.656L1493.23 737.523 1479.59 737.523 1479.59 736.656C1480.27 736.675 1480.95 736.58 1481.6 736.375 1481.93 736.238 1482.21 736.015 1482.41 735.73 1482.61 735.479 1482.72 735.171 1482.73 734.852 1482.73 734.482 1482.65 734.116 1482.52 733.773 1482.13 733.058 1481.7 732.369 1481.23 731.711L1475.84 723.555 1469.18 732.086C1468.71 732.654 1468.28 733.262 1467.92 733.902 1467.78 734.199 1467.7 734.524 1467.7 734.852 1467.7 735.344 1467.94 735.807 1468.34 736.094 1469.07 736.505 1469.91 736.7 1470.75 736.656L1470.75 737.523 1459.48 737.523 1459.48 736.656C1460.19 736.6 1460.88 736.434 1461.54 736.164 1462.53 735.744 1463.46 735.192 1464.31 734.523 1465.42 733.585 1466.43 732.524 1467.31 731.359L1474.81 721.891 1468.55 712.727C1467.4 710.853 1465.94 709.198 1464.21 707.84 1462.99 707.055 1461.57 706.628 1460.11 706.609L1460.11 705.742 1474.81 705.742 1474.81 706.609C1473.91 706.562 1473.02 706.774 1472.24 707.219 1471.83 707.484 1471.57 707.928 1471.55 708.414 1471.69 709.343 1472.08 710.216 1472.67 710.945L1477.55 718.234 1483.2 711.086C1483.65 710.544 1484.05 709.963 1484.4 709.352 1484.55 709.052 1484.62 708.724 1484.63 708.391 1484.63 708.078 1484.53 707.773 1484.34 707.523 1484.13 707.207 1483.81 706.966 1483.45 706.832 1482.73 706.656 1481.98 706.581 1481.23 706.609L1481.23 705.742 1492.5 705.742 1492.5 706.609C1491.76 706.627 1491.02 706.769 1490.32 707.031 1489.48 707.391 1488.69 707.882 1488 708.484 1486.91 709.522 1485.92 710.651 1485.02 711.859Z"/><path d="M1257.25 764.209 1257.25 763.342 1270.86 763.342 1270.86 764.209 1269.72 764.209C1268.64 764.115 1267.59 764.542 1266.88 765.357 1266.5 765.857 1266.32 767.061 1266.32 768.967L1266.32 784.506C1266.38 786.473 1266.11 788.437 1265.53 790.318 1264.99 791.829 1264.06 793.168 1262.83 794.197 1261.54 795.302 1259.88 795.891 1258.18 795.85 1256.93 795.921 1255.7 795.533 1254.72 794.76 1253.94 794.163 1253.47 793.245 1253.45 792.264 1253.4 791.63 1253.61 791.005 1254.04 790.529 1254.52 790.058 1255.17 789.797 1255.84 789.803 1256.33 789.8 1256.81 789.975 1257.19 790.295 1257.86 791.065 1258.37 791.956 1258.7 792.92 1259.06 793.764 1259.52 794.186 1260.08 794.186 1260.58 794.14 1261.02 793.85 1261.27 793.412 1261.71 792.57 1261.9 791.618 1261.82 790.67L1261.82 768.967C1261.88 767.895 1261.78 766.82 1261.51 765.779 1261.31 765.34 1260.96 764.984 1260.53 764.771 1259.88 764.402 1259.14 764.208 1258.4 764.209Z"/><path d="M1283.15 773.021C1286.2 772.928 1289.11 774.305 1290.97 776.725 1292.63 778.782 1293.51 781.351 1293.48 783.99 1293.46 786.014 1292.99 788.007 1292.1 789.826 1290.53 793.5 1286.88 795.854 1282.89 795.779 1279.83 795.868 1276.93 794.415 1275.18 791.912 1273.59 789.807 1272.74 787.236 1272.76 784.6 1272.78 782.555 1273.28 780.543 1274.23 778.729 1275.06 776.943 1276.4 775.443 1278.08 774.416 1279.61 773.504 1281.36 773.022 1283.15 773.021ZM1282.42 774.545C1281.54 774.561 1280.67 774.816 1279.92 775.283 1278.98 775.903 1278.27 776.812 1277.9 777.873 1277.33 779.394 1277.07 781.01 1277.12 782.631 1277.05 785.441 1277.69 788.223 1278.99 790.717 1280.23 792.982 1281.86 794.115 1283.9 794.115 1285.38 794.133 1286.77 793.435 1287.65 792.24 1288.63 790.99 1289.12 788.842 1289.12 785.795 1289.12 781.982 1288.3 778.982 1286.66 776.795 1285.71 775.381 1284.12 774.536 1282.42 774.545Z"/><path d="M1304.05 773.021 1304.05 790.271C1303.99 791.176 1304.09 792.084 1304.34 792.955 1304.52 793.373 1304.82 793.724 1305.21 793.951 1305.88 794.221 1306.59 794.333 1307.31 794.279L1307.31 795.123 1296.88 795.123 1296.88 794.279C1297.6 794.335 1298.32 794.231 1298.99 793.975 1299.38 793.74 1299.68 793.386 1299.84 792.967 1300.11 792.095 1300.22 791.182 1300.16 790.271L1300.16 781.998C1300.21 780.487 1300.14 778.975 1299.95 777.475 1299.9 777.08 1299.71 776.714 1299.43 776.432 1299.16 776.223 1298.82 776.119 1298.47 776.139 1297.93 776.162 1297.39 776.281 1296.88 776.49L1296.55 775.646 1303.02 773.021ZM1302.11 761.795C1303.41 761.791 1304.47 762.845 1304.47 764.149 1304.47 764.153 1304.47 764.158 1304.47 764.162 1304.48 764.795 1304.23 765.405 1303.78 765.85 1303.35 766.308 1302.74 766.563 1302.11 766.553 1300.79 766.564 1299.72 765.509 1299.71 764.195 1299.69 762.881 1300.75 761.807 1302.06 761.795 1302.08 761.795 1302.09 761.795 1302.11 761.795Z"/><path d="M1316.24 777.568C1318.75 774.537 1321.15 773.021 1323.43 773.021 1324.51 772.993 1325.57 773.3 1326.46 773.9 1327.41 774.637 1328.11 775.647 1328.47 776.795 1328.88 778.195 1329.05 779.651 1328.99 781.107L1328.99 790.271C1328.93 791.206 1329.04 792.143 1329.32 793.037 1329.49 793.425 1329.78 793.746 1330.15 793.951 1330.82 794.222 1331.55 794.334 1332.27 794.279L1332.27 795.123 1321.65 795.123 1321.65 794.279 1322.1 794.279C1322.83 794.346 1323.56 794.186 1324.2 793.822 1324.62 793.48 1324.91 793.005 1325.03 792.475 1325.12 791.744 1325.15 791.007 1325.12 790.272L1325.12 781.482C1325.22 780.023 1324.96 778.563 1324.36 777.229 1323.83 776.332 1322.83 775.818 1321.79 775.904 1319.93 775.904 1318.08 776.92 1316.24 778.951L1316.24 790.271C1316.17 791.178 1316.26 792.089 1316.5 792.967 1316.68 793.386 1317 793.735 1317.4 793.963 1318.15 794.233 1318.94 794.341 1319.73 794.279L1319.73 795.123 1309.11 795.123 1309.11 794.279 1309.58 794.279C1310.41 794.387 1311.24 794.075 1311.8 793.447 1312.27 792.46 1312.47 791.363 1312.37 790.272L1312.37 782.303C1312.42 780.73 1312.36 779.156 1312.2 777.592 1312.14 777.161 1311.96 776.758 1311.66 776.443 1311.38 776.229 1311.03 776.121 1310.68 776.139 1310.14 776.161 1309.61 776.28 1309.11 776.49L1308.76 775.647 1315.23 773.022 1316.24 773.022Z"/><path d="M1340.22 766.6 1340.22 773.654 1345.23 773.654 1345.23 775.295 1340.22 775.295 1340.22 789.217C1340.11 790.194 1340.32 791.178 1340.81 792.029 1341.18 792.5 1341.75 792.769 1342.35 792.756 1342.89 792.749 1343.41 792.582 1343.85 792.275 1344.36 791.926 1344.75 791.432 1344.97 790.857L1345.89 790.857C1345.46 792.209 1344.66 793.41 1343.57 794.314 1342.7 795.04 1341.61 795.449 1340.47 795.474 1339.73 795.468 1339 795.261 1338.36 794.877 1337.68 794.487 1337.15 793.886 1336.84 793.166 1336.46 792.064 1336.29 790.898 1336.35 789.732L1336.35 775.295 1332.95 775.295 1332.95 774.521C1333.93 774.102 1334.82 773.51 1335.59 772.775 1336.52 771.917 1337.33 770.935 1337.99 769.857 1338.56 768.807 1339.06 767.718 1339.49 766.599Z"/><path d="M1389.46 795.123 1377.18 768.381 1377.18 789.615C1377.18 791.568 1377.39 792.787 1377.81 793.271 1378.54 793.986 1379.54 794.345 1380.55 794.256L1381.68 794.256 1381.68 795.123 1370.61 795.123 1370.61 794.256 1371.74 794.256C1372.84 794.365 1373.92 793.906 1374.6 793.037 1375.05 791.956 1375.23 790.781 1375.11 789.615L1375.11 768.85C1375.18 767.812 1375.02 766.773 1374.65 765.803 1374.38 765.302 1373.95 764.903 1373.44 764.666 1372.54 764.305 1371.58 764.149 1370.61 764.209L1370.61 763.342 1379.61 763.342 1391.15 788.209 1402.49 763.342 1411.49 763.342 1411.49 764.209 1410.39 764.209C1409.28 764.096 1408.19 764.556 1407.5 765.428 1407.05 766.509 1406.88 767.684 1406.99 768.85L1406.99 789.615C1406.99 791.568 1407.21 792.787 1407.65 793.272 1408.37 793.986 1409.37 794.345 1410.39 794.256L1411.49 794.256 1411.49 795.123 1397.99 795.123 1397.99 794.256 1399.11 794.256C1400.21 794.372 1401.3 793.911 1401.97 793.037 1402.42 791.956 1402.6 790.781 1402.49 789.615L1402.49 768.381 1390.23 795.123Z"/><path d="M1424.5 773.021C1427.55 772.928 1430.46 774.305 1432.33 776.725 1433.98 778.782 1434.87 781.351 1434.83 783.99 1434.81 786.014 1434.34 788.007 1433.45 789.826 1431.88 793.5 1428.23 795.854 1424.24 795.779 1421.18 795.868 1418.29 794.415 1416.53 791.912 1414.94 789.807 1414.09 787.236 1414.11 784.6 1414.13 782.555 1414.63 780.543 1415.58 778.729 1416.41 776.943 1417.75 775.443 1419.43 774.416 1420.97 773.504 1422.71 773.022 1424.5 773.021ZM1423.77 774.545C1422.89 774.561 1422.02 774.816 1421.27 775.283 1420.34 775.903 1419.62 776.812 1419.25 777.873 1418.68 779.394 1418.42 781.01 1418.47 782.631 1418.4 785.441 1419.04 788.223 1420.34 790.717 1421.58 792.982 1423.22 794.115 1425.25 794.115 1426.73 794.133 1428.12 793.435 1429 792.24 1429.98 790.99 1430.47 788.842 1430.47 785.795 1430.47 781.982 1429.65 778.982 1428.01 776.795 1427.07 775.381 1425.47 774.536 1423.77 774.545Z"/><path d="M1444.23 766.6 1444.23 773.654 1449.25 773.654 1449.25 775.295 1444.23 775.295 1444.23 789.217C1444.13 790.194 1444.34 791.178 1444.83 792.029 1445.2 792.5 1445.77 792.769 1446.36 792.756 1446.9 792.749 1447.42 792.582 1447.86 792.275 1448.37 791.926 1448.76 791.432 1448.99 790.857L1449.9 790.857C1449.48 792.209 1448.67 793.41 1447.58 794.314 1446.71 795.04 1445.62 795.449 1444.49 795.474 1443.75 795.468 1443.02 795.261 1442.38 794.877 1441.7 794.487 1441.17 793.886 1440.86 793.166 1440.47 792.064 1440.3 790.898 1440.36 789.732L1440.36 775.295 1436.97 775.295 1436.97 774.521C1437.94 774.102 1438.83 773.51 1439.6 772.775 1440.53 771.917 1441.34 770.935 1442 769.857 1442.58 768.807 1443.08 767.718 1443.5 766.599Z"/><path d="M1461.83 773.021C1464.89 772.928 1467.8 774.305 1469.66 776.725 1471.32 778.782 1472.2 781.351 1472.17 783.99 1472.15 786.014 1471.67 788.007 1470.79 789.826 1469.21 793.5 1465.57 795.854 1461.58 795.779 1458.52 795.868 1455.62 794.415 1453.86 791.912 1452.28 789.807 1451.43 787.236 1451.45 784.6 1451.47 782.555 1451.97 780.543 1452.92 778.729 1453.75 776.943 1455.09 775.443 1456.77 774.416 1458.3 773.504 1460.05 773.022 1461.83 773.021ZM1461.11 774.545C1460.22 774.561 1459.36 774.816 1458.61 775.283 1457.67 775.903 1456.96 776.812 1456.58 777.873 1456.02 779.394 1455.76 781.01 1455.81 782.631 1455.74 785.441 1456.38 788.223 1457.67 790.717 1458.92 792.982 1460.55 794.115 1462.58 794.115 1464.06 794.133 1465.46 793.435 1466.33 792.24 1467.32 790.99 1467.81 788.842 1467.81 785.795 1467.81 781.982 1466.99 778.982 1465.35 776.795 1464.4 775.381 1462.81 774.536 1461.11 774.545Z"/><path d="M1481.61 773.021 1481.61 777.85C1483.41 774.631 1485.25 773.021 1487.15 773.021 1487.93 772.994 1488.7 773.276 1489.28 773.807 1489.81 774.261 1490.12 774.924 1490.12 775.623 1490.14 776.2 1489.92 776.757 1489.51 777.17 1489.14 777.577 1488.61 777.807 1488.06 777.803 1487.37 777.745 1486.73 777.461 1486.22 776.994 1485.8 776.585 1485.28 776.304 1484.71 776.186 1484.35 776.22 1484.03 776.388 1483.79 776.654 1482.89 777.577 1482.15 778.647 1481.61 779.818L1481.61 790.107C1481.57 791.027 1481.72 791.947 1482.06 792.803 1482.3 793.26 1482.68 793.629 1483.14 793.857 1483.83 794.176 1484.6 794.321 1485.36 794.279L1485.36 795.123 1474.37 795.123 1474.37 794.279C1475.22 794.337 1476.06 794.158 1476.81 793.764 1477.22 793.482 1477.52 793.055 1477.63 792.568 1477.74 791.816 1477.78 791.055 1477.75 790.295L1477.75 781.975C1477.79 780.485 1477.74 778.993 1477.59 777.51 1477.53 777.107 1477.34 776.738 1477.03 776.467 1476.74 776.242 1476.38 776.126 1476.01 776.139 1475.45 776.155 1474.89 776.274 1474.37 776.49L1474.14 775.646 1480.63 773.021Z"/><path d="M1349.84 853.379 1352.02 842.715 1348.01 842.715 1348.01 840.793 1352.39 840.793 1354.01 832.754 1348.01 832.754 1348.01 830.879 1354.45 830.879 1356.59 820.215 1358.53 820.215 1356.4 830.879 1364.3 830.879 1366.57 820.215 1368.52 820.215 1366.29 830.879 1370.27 830.879 1370.27 832.754 1365.94 832.754 1364.3 840.793 1370.27 840.793 1370.27 842.715 1363.9 842.715 1361.72 853.379 1359.82 853.379 1361.95 842.715 1354.01 842.715 1351.78 853.379ZM1354.36 840.793 1362.31 840.793 1363.99 832.754 1356 832.754Z"/><path d="M1376.77 824.059 1384.5 820.285 1385.27 820.285 1385.27 847.121C1385.22 848.235 1385.29 849.352 1385.5 850.449 1385.66 850.898 1385.99 851.262 1386.42 851.457 1387.34 851.765 1388.31 851.9 1389.28 851.855L1389.28 852.723 1377.33 852.723 1377.33 851.855C1378.31 851.905 1379.3 851.774 1380.24 851.469 1380.64 851.279 1380.96 850.956 1381.15 850.555 1381.39 849.428 1381.48 848.272 1381.41 847.121L1381.41 829.965C1381.46 828.476 1381.38 826.986 1381.17 825.512 1381.11 825.087 1380.89 824.698 1380.58 824.41 1380.28 824.174 1379.91 824.049 1379.53 824.059 1378.69 824.134 1377.86 824.381 1377.12 824.785Z"/><path d="M1618.08 595.697 1610.27 618.671 1606.05 618.671 1598.43 595.697 1601.96 595.697 1606.92 611.183 1608.32 615.718 1609.76 611.183 1614.74 595.697Z" fill="#FF0000"/><path d="M1636.46 610.427 1629.56 610.427 1629.56 617.599 1626.53 617.599 1626.53 610.427 1619.62 610.427 1619.62 607.755 1626.53 607.755 1626.53 600.636 1629.56 600.636 1629.56 607.755 1636.46 607.755Z" fill="#FF0000"/><path d="M1606.14 639.799C1605.31 639.35 1604.42 638.993 1603.51 638.736 1602.54 638.476 1601.55 638.349 1600.55 638.358 1599.43 638.337 1598.33 638.559 1597.3 639.008 1596.37 639.428 1595.55 640.056 1594.9 640.845 1594.22 641.691 1593.71 642.661 1593.41 643.702 1593.05 644.899 1592.87 646.143 1592.89 647.393 1592.87 648.665 1593.02 649.935 1593.31 651.172 1593.55 652.197 1594 653.16 1594.63 654.002 1595.23 654.779 1596.02 655.39 1596.92 655.778 1597.98 656.213 1599.12 656.422 1600.27 656.393 1600.49 656.393 1600.73 656.381 1600.99 656.358 1601.25 656.334 1601.51 656.302 1601.77 656.261 1602.02 656.22 1602.27 656.17 1602.51 656.112 1602.73 656.06 1602.94 655.996 1603.15 655.918L1603.15 648.606 1598.46 648.606 1598.46 646.022 1606.25 646.022 1606.25 657.764C1605.75 657.992 1605.25 658.192 1604.73 658.362 1604.19 658.538 1603.65 658.685 1603.09 658.801 1602.54 658.917 1601.99 659.005 1601.43 659.065 1600.9 659.122 1600.37 659.152 1599.83 659.153 1598.38 659.174 1596.94 658.924 1595.59 658.415 1594.36 657.944 1593.26 657.195 1592.37 656.226 1591.44 655.181 1590.75 653.949 1590.33 652.614 1589.83 650.992 1589.59 649.301 1589.62 647.604 1589.59 645.881 1589.86 644.166 1590.41 642.533 1590.88 641.129 1591.64 639.836 1592.63 638.736 1593.59 637.698 1594.77 636.887 1596.08 636.363 1597.49 635.805 1599 635.527 1600.52 635.545 1601.51 635.541 1602.49 635.633 1603.46 635.818 1604.39 635.998 1605.29 636.29 1606.14 636.688Z"/><path d="M1625.97 658.836 1621.89 658.836 1615.2 644.51 1613.26 639.905 1613.26 658.836 1610.34 658.836 1610.34 635.862 1614.37 635.862 1620.75 649.432 1623.05 654.688 1623.05 635.862 1625.97 635.862Z"/><path d="M1646.55 647.094C1646.56 648.154 1646.47 649.213 1646.3 650.258 1646.14 651.225 1645.87 652.17 1645.48 653.071 1645.11 653.926 1644.62 654.723 1644.02 655.435 1643.4 656.164 1642.66 656.78 1641.83 657.254 1640.88 657.789 1639.86 658.183 1638.8 658.423 1637.52 658.714 1636.2 658.852 1634.88 658.836L1629.96 658.836 1629.96 635.862 1635.88 635.862C1639.47 635.862 1642.15 636.785 1643.91 638.63 1645.67 640.476 1646.55 643.297 1646.55 647.094ZM1643.27 647.323C1643.3 645.932 1643.14 644.543 1642.81 643.192 1642.57 642.187 1642.09 641.254 1641.42 640.467 1640.79 639.768 1639.98 639.25 1639.08 638.964 1638.01 638.634 1636.9 638.477 1635.78 638.499L1633.09 638.499 1633.09 656.129 1635.43 656.129C1640.65 656.129 1643.27 653.194 1643.27 647.323Z"/><path d="M1605.95 698.14C1604.12 698.9 1602.15 699.288 1600.17 699.282 1596.92 699.282 1594.43 698.312 1592.69 696.373 1590.95 694.434 1590.08 691.566 1590.08 687.769 1590.05 686.078 1590.3 684.393 1590.8 682.777 1591.22 681.389 1591.92 680.101 1592.85 678.989 1593.74 677.956 1594.84 677.136 1596.09 676.589 1597.43 676.011 1598.88 675.724 1600.34 675.746 1601.34 675.739 1602.33 675.83 1603.31 676.018 1604.22 676.198 1605.1 676.478 1605.95 676.853L1605.95 679.929C1605.13 679.479 1604.27 679.127 1603.37 678.883 1602.41 678.635 1601.43 678.514 1600.45 678.523 1599.44 678.508 1598.44 678.715 1597.52 679.129 1596.65 679.531 1595.89 680.134 1595.3 680.887 1594.65 681.726 1594.17 682.681 1593.89 683.7 1593.55 684.932 1593.38 686.208 1593.4 687.488 1593.4 690.464 1594 692.708 1595.21 694.22 1596.52 695.778 1598.49 696.62 1600.52 696.487 1601.47 696.491 1602.42 696.376 1603.35 696.145 1604.25 695.918 1605.12 695.596 1605.95 695.187Z" fill="#999999"/><path d="M1627.08 687.365C1627.11 689.173 1626.87 690.976 1626.35 692.708 1625.94 694.064 1625.27 695.326 1624.38 696.426 1623.6 697.371 1622.6 698.118 1621.48 698.605 1619.12 699.585 1616.45 699.553 1614.11 698.518 1613.03 697.99 1612.09 697.195 1611.39 696.206 1610.62 695.093 1610.08 693.843 1609.78 692.524 1609.41 690.919 1609.24 689.275 1609.25 687.628 1609.22 685.832 1609.46 684.042 1609.97 682.32 1610.38 680.964 1611.04 679.701 1611.93 678.602 1612.71 677.659 1613.7 676.912 1614.83 676.422 1615.93 675.947 1617.12 675.705 1618.32 675.71 1619.66 675.679 1620.98 675.956 1622.18 676.519 1623.27 677.052 1624.21 677.846 1624.92 678.831 1625.69 679.936 1626.24 681.181 1626.54 682.496 1626.92 684.091 1627.1 685.726 1627.08 687.365ZM1623.83 687.593C1623.84 686.353 1623.73 685.115 1623.52 683.893 1623.35 682.881 1623.02 681.903 1622.53 681.001 1622.11 680.234 1621.5 679.586 1620.76 679.121 1619.97 678.657 1619.06 678.425 1618.15 678.453 1617.25 678.428 1616.36 678.676 1615.61 679.164 1614.88 679.661 1614.28 680.324 1613.86 681.098 1613.37 681.994 1613.03 682.961 1612.84 683.963 1612.61 685.112 1612.5 686.281 1612.51 687.453 1612.5 688.699 1612.6 689.944 1612.82 691.17 1612.99 692.179 1613.33 693.152 1613.82 694.053 1614.23 694.816 1614.83 695.46 1615.56 695.925 1616.35 696.388 1617.24 696.619 1618.15 696.593 1619.05 696.616 1619.94 696.368 1620.7 695.881 1621.43 695.386 1622.04 694.723 1622.46 693.948 1622.95 693.056 1623.3 692.092 1623.49 691.091 1623.72 689.94 1623.83 688.768 1623.83 687.593Z" fill="#999999"/><path d="M1646.98 699.001 1643.92 699.001 1643.46 684.675 1643.27 679.173 1642.2 682.373 1638.8 691.513 1636.64 691.513 1633.41 682.724 1632.33 679.173 1632.26 684.921 1631.86 699.001 1628.91 699.001 1630.03 676.027 1633.74 676.027 1636.83 684.675 1637.84 687.593 1638.8 684.675 1642.05 676.027 1645.87 676.027Z" fill="#999999"/><path d="M1614.95 739.166 1601.89 739.166 1601.89 716.191 1614.95 716.191 1614.95 718.828 1605.02 718.828 1605.02 725.947 1614.56 725.947 1614.56 728.584 1605.02 728.584 1605.02 736.494 1614.95 736.494Z" fill="#999999"/><path d="M1635.87 739.166 1631.79 739.166 1625.09 724.84 1623.16 720.234 1623.16 739.166 1620.24 739.166 1620.24 716.191 1624.27 716.191 1630.65 729.762 1632.95 735.018 1632.95 716.191 1635.87 716.191Z" fill="#999999"/><path d="M1605.98 773.108C1606.01 774.104 1605.78 775.09 1605.32 775.974 1604.87 776.796 1604.23 777.499 1603.45 778.021 1602.58 778.6 1601.6 779.014 1600.58 779.243 1599.37 779.523 1598.12 779.659 1596.88 779.647 1596.27 779.647 1595.66 779.624 1595.06 779.577 1594.46 779.53 1593.88 779.472 1593.32 779.401 1592.76 779.331 1592.24 779.249 1591.75 779.155 1591.25 779.062 1590.81 778.962 1590.41 778.856L1590.41 775.833C1591.37 776.183 1592.36 776.442 1593.37 776.606 1594.61 776.805 1595.86 776.899 1597.11 776.888 1597.97 776.902 1598.83 776.822 1599.68 776.65 1600.3 776.529 1600.89 776.29 1601.42 775.947 1601.85 775.666 1602.19 775.274 1602.41 774.813 1602.62 774.332 1602.72 773.81 1602.71 773.284 1602.73 772.71 1602.55 772.148 1602.2 771.693 1601.81 771.223 1601.35 770.825 1600.83 770.516 1600.22 770.145 1599.58 769.827 1598.91 769.566 1598.19 769.279 1597.45 768.983 1596.7 768.679 1595.95 768.374 1595.22 768.043 1594.5 767.686 1593.8 767.347 1593.16 766.921 1592.57 766.42 1592.01 765.939 1591.55 765.358 1591.21 764.706 1590.85 763.981 1590.67 763.178 1590.69 762.368 1590.69 761.569 1590.86 760.779 1591.18 760.048 1591.53 759.262 1592.05 758.567 1592.71 758.018 1593.5 757.373 1594.4 756.887 1595.38 756.585 1596.63 756.197 1597.94 756.013 1599.25 756.04 1599.64 756.04 1600.06 756.058 1600.51 756.093 1600.96 756.128 1601.42 756.178 1601.88 756.242 1602.34 756.307 1602.8 756.38 1603.25 756.462 1603.7 756.544 1604.12 756.632 1604.51 756.726L1604.51 759.538C1603.62 759.283 1602.71 759.087 1601.8 758.949 1600.93 758.817 1600.06 758.75 1599.18 758.747 1597.8 758.644 1596.43 758.957 1595.23 759.644 1594.42 760.174 1593.94 761.085 1593.96 762.052 1593.95 762.628 1594.13 763.193 1594.48 763.651 1594.86 764.127 1595.32 764.532 1595.84 764.847 1596.45 765.223 1597.1 765.543 1597.77 765.805 1598.49 766.092 1599.22 766.388 1599.97 766.692 1600.72 766.997 1601.46 767.331 1602.18 767.694 1602.87 768.04 1603.52 768.474 1604.1 768.986 1604.66 769.48 1605.12 770.073 1605.46 770.735 1605.83 771.473 1606 772.287 1605.98 773.108Z" fill="#999999"/><path d="M1626.53 759.028 1619.73 759.028 1619.73 779.331 1616.57 779.331 1616.57 759.028 1609.76 759.028 1609.76 756.356 1626.53 756.356Z" fill="#999999"/><path d="M1645.9 763.388C1645.9 764.341 1645.72 765.285 1645.38 766.174 1645.02 767.106 1644.46 767.948 1643.74 768.644 1642.93 769.418 1641.97 770.019 1640.91 770.41 1639.6 770.89 1638.2 771.12 1636.8 771.087L1633.95 771.087 1633.95 779.331 1630.82 779.331 1630.82 756.356 1637.29 756.356C1638.39 756.352 1639.49 756.479 1640.56 756.734 1641.55 756.961 1642.48 757.376 1643.31 757.956 1644.1 758.522 1644.75 759.269 1645.2 760.136 1645.7 761.146 1645.94 762.263 1645.9 763.388ZM1642.65 763.528C1642.73 762.232 1642.19 760.974 1641.2 760.136 1640.03 759.286 1638.6 758.87 1637.15 758.958L1633.95 758.958 1633.95 768.415 1636.87 768.415C1638.39 768.513 1639.9 768.085 1641.15 767.202 1642.2 766.282 1642.76 764.921 1642.65 763.528Z" fill="#999999"/><path d="M1606.97 807.754C1606.97 808.814 1606.89 809.872 1606.71 810.918 1606.56 811.885 1606.28 812.829 1605.9 813.73 1605.53 814.586 1605.04 815.383 1604.44 816.095 1603.82 816.824 1603.07 817.439 1602.24 817.914 1601.29 818.449 1600.28 818.842 1599.22 819.083 1597.93 819.373 1596.62 819.512 1595.3 819.496L1590.38 819.496 1590.38 796.521 1596.3 796.521C1599.88 796.521 1602.56 797.444 1604.32 799.29 1606.09 801.136 1606.97 803.957 1606.97 807.754ZM1603.68 807.982C1603.71 806.591 1603.56 805.203 1603.22 803.852 1602.98 802.847 1602.51 801.913 1601.84 801.127 1601.2 800.428 1600.4 799.909 1599.5 799.624 1598.43 799.294 1597.31 799.137 1596.19 799.158L1593.5 799.158 1593.5 816.789 1595.84 816.789C1601.07 816.789 1603.68 813.854 1603.68 807.982Z" fill="#999999"/><path d="M1616.57 799.158 1611.28 799.158 1611.28 796.521 1625.02 796.521 1625.02 799.158 1619.73 799.158 1619.73 816.824 1625.02 816.824 1625.02 819.496 1611.28 819.496 1611.28 816.824 1616.57 816.824Z" fill="#999999"/><path d="M1646.52 819.496 1642.99 819.496 1639.56 812.148C1639.34 811.658 1639.08 811.19 1638.77 810.751 1638.53 810.412 1638.23 810.115 1637.9 809.872 1637.59 809.656 1637.24 809.498 1636.88 809.406 1636.47 809.308 1636.06 809.261 1635.64 809.266L1634.16 809.266 1634.16 819.496 1631.03 819.496 1631.03 796.521 1637.19 796.521C1638.35 796.499 1639.51 796.647 1640.63 796.961 1641.5 797.203 1642.3 797.622 1643 798.191 1643.6 798.703 1644.06 799.359 1644.35 800.099 1644.64 800.888 1644.79 801.726 1644.78 802.568 1644.78 803.258 1644.68 803.943 1644.46 804.599 1644.26 805.23 1643.94 805.82 1643.52 806.339 1643.09 806.876 1642.57 807.334 1641.98 807.692 1641.32 808.089 1640.6 808.377 1639.86 808.545 1640.51 808.77 1641.08 809.176 1641.5 809.714 1642.04 810.405 1642.5 811.151 1642.88 811.938ZM1641.51 802.832C1641.59 801.781 1641.16 800.756 1640.36 800.072 1639.41 799.409 1638.27 799.087 1637.12 799.158L1634.16 799.158 1634.16 806.752 1636.69 806.752C1637.37 806.76 1638.04 806.675 1638.69 806.497 1639.24 806.349 1639.75 806.092 1640.2 805.741 1640.61 805.411 1640.94 804.99 1641.17 804.511 1641.4 803.983 1641.52 803.41 1641.51 802.832Z" fill="#999999"/><path d="M1587.14 859.661 1583.61 859.661 1580.18 852.313C1579.96 851.823 1579.7 851.355 1579.39 850.916 1579.15 850.577 1578.86 850.28 1578.52 850.037 1578.21 849.821 1577.86 849.663 1577.5 849.571 1577.09 849.473 1576.68 849.426 1576.26 849.431L1574.78 849.431 1574.78 859.661 1571.65 859.661 1571.65 836.687 1577.81 836.687C1578.97 836.664 1580.13 836.812 1581.25 837.126 1582.12 837.368 1582.92 837.787 1583.62 838.356 1584.22 838.868 1584.69 839.524 1584.97 840.264 1585.26 841.053 1585.41 841.891 1585.4 842.733 1585.4 843.423 1585.3 844.108 1585.08 844.764 1584.88 845.395 1584.56 845.985 1584.14 846.504 1583.71 847.041 1583.19 847.499 1582.6 847.857 1581.94 848.255 1581.23 848.542 1580.48 848.71 1581.13 848.935 1581.7 849.341 1582.12 849.879 1582.66 850.57 1583.12 851.316 1583.5 852.103ZM1582.13 842.997C1582.21 841.946 1581.78 840.922 1580.98 840.237 1580.03 839.574 1578.89 839.252 1577.74 839.323L1574.78 839.323 1574.78 846.917 1577.31 846.917C1577.99 846.925 1578.66 846.84 1579.31 846.662 1579.86 846.514 1580.37 846.257 1580.82 845.906 1581.23 845.576 1581.57 845.155 1581.79 844.676 1582.03 844.148 1582.14 843.575 1582.13 842.997Z" fill="#009245"/><path d="M1605.46 834.823 1593.4 863.44 1590.48 863.44 1602.54 834.823Z" fill="#009245"/><path d="M1627.87 859.661 1624.46 859.661 1622.86 854.651 1613.3 854.651 1611.68 859.661 1608.43 859.661 1616.06 836.687 1620.35 836.687ZM1621.96 851.856 1618.08 839.569 1614.19 851.856Z" fill="#009245"/><path d="M1645.04 834.823 1632.98 863.44 1630.07 863.44 1642.12 834.823Z" fill="#009245"/><path d="M1665.7 859.661 1662.57 859.661 1662.57 849.114 1652.92 849.114 1652.92 859.661 1649.79 859.661 1649.79 836.687 1652.92 836.687 1652.92 846.407 1662.57 846.407 1662.57 836.687 1665.7 836.687Z" fill="#009245"/><path d="M1586.95 879.523 1580.14 879.523 1580.14 899.826 1576.98 899.826 1576.98 879.523 1570.18 879.523 1570.18 876.852 1586.95 876.852Z" fill="#0000FF"/><path d="M1605.46 874.988 1593.4 903.605 1590.48 903.605 1602.54 874.988Z" fill="#0000FF"/><path d="M1626.11 892.953C1626.13 893.966 1625.91 894.969 1625.47 895.88 1625.04 896.732 1624.41 897.47 1623.64 898.033 1622.78 898.653 1621.81 899.106 1620.78 899.369 1619.56 899.686 1618.3 899.84 1617.04 899.826L1611.03 899.826 1611.03 876.852 1617.6 876.852C1622.72 876.852 1625.29 878.715 1625.29 882.441 1625.32 883.573 1625.01 884.687 1624.4 885.641 1623.69 886.614 1622.67 887.315 1621.51 887.627 1622.12 887.742 1622.71 887.943 1623.27 888.225 1623.82 888.5 1624.32 888.869 1624.74 889.314 1625.17 889.774 1625.51 890.311 1625.74 890.896 1626 891.552 1626.12 892.25 1626.11 892.953ZM1622.03 882.863C1622.04 882.412 1621.96 881.964 1621.82 881.536 1621.68 881.117 1621.42 880.746 1621.08 880.464 1620.66 880.13 1620.18 879.888 1619.66 879.752 1618.92 879.559 1618.16 879.47 1617.39 879.488L1614.16 879.488 1614.16 886.678 1617.29 886.678C1617.94 886.685 1618.59 886.608 1619.23 886.449 1619.77 886.316 1620.28 886.077 1620.72 885.746 1621.14 885.434 1621.47 885.027 1621.69 884.56 1621.93 884.027 1622.05 883.447 1622.03 882.863ZM1622.79 893.059C1622.8 892.509 1622.67 891.966 1622.42 891.477 1622.17 890.999 1621.8 890.591 1621.35 890.29 1620.82 889.944 1620.24 889.691 1619.63 889.543 1618.89 889.359 1618.12 889.27 1617.36 889.279L1614.16 889.279 1614.16 897.189 1617.46 897.189C1618.87 897.293 1620.28 896.942 1621.47 896.188 1622.39 895.422 1622.89 894.254 1622.79 893.059Z" fill="#0000FF"/><path d="M1645.04 874.988 1632.98 903.605 1630.07 903.605 1642.12 874.988Z" fill="#0000FF"/><path d="M1665.15 899.826 1651.93 899.826 1651.93 876.852 1655.12 876.852 1655.12 897.154 1665.15 897.154Z" fill="#0000FF"/><line x1="1786.33" y1="169" x2="1786.33" y2="646" stroke="#000000" stroke-width="4" stroke-miterlimit="10" fill="none"/><line x1="1848.99" y1="239.879" x2="1848.67" y2="847" stroke="#009245" stroke-width="4" stroke-miterlimit="10" fill="none"/><path d="M1834.17 251.105 1848.98 244.82 1863.79 251.121 1849 216 1834.17 251.105Z" fill="#009245"/><line x1="1911" y1="286.879" x2="1911" y2="889" stroke="#0000FF" stroke-width="4" stroke-miterlimit="10" fill="none"/><path d="M1896.19 298.113 1911 291.82 1925.81 298.113 1911 263 1896.19 298.113Z" fill="#0000FF"/><line x1="1678" y1="646" x2="1788" y2="646" stroke="#000000" stroke-width="4" stroke-miterlimit="10" fill="none"/><line x1="1851" y1="847" x2="1703.88" y2="847" stroke="#009245" stroke-width="4" stroke-miterlimit="10" fill="none"/><path d="M1715.11 832.187 1708.82 847 1715.11 861.812 1680 847 1715.11 832.187Z" fill="#009245"/><line x1="1912" y1="889" x2="1702.88" y2="889" stroke="#0000FF" stroke-width="4" stroke-miterlimit="10" fill="none"/><path d="M1714.11 874.187 1707.82 889 1714.11 903.812 1679 889 1714.11 874.187Z" fill="#0000FF"/><line x1="105" y1="122.122" x2="963" y2="122.122" stroke="#FF0000" stroke-width="4" stroke-miterlimit="10" fill="none"/><rect x="103" y="109.122" width="4" height="26" fill="#FF0000"/><line x1="105" y1="263.122" x2="963" y2="263.122" stroke="#0000FF" stroke-width="4" stroke-miterlimit="10" fill="none"/><rect x="103" y="250.122" width="4" height="26" fill="#0000FF"/><line x1="105" y1="216.122" x2="963" y2="216.122" stroke="#009245" stroke-width="4" stroke-miterlimit="10" fill="none"/><rect x="103" y="203.122" width="4" height="26" fill="#009245"/><line x1="105" y1="169.122" x2="963" y2="169.122" stroke="#000000" stroke-width="4" stroke-miterlimit="10" fill="none"/><rect x="103" y="156.122" width="4" height="26"/><line x1="606.294" y1="608.372" x2="654.294" y2="608.372" stroke="#FF0000" stroke-width="4" stroke-miterlimit="10" fill="none"/><line x1="654.294" y1="122.372" x2="654.294" y2="610.372" stroke="#FF0000" stroke-width="4" stroke-miterlimit="10" fill="none"/><rect x="103.294" y="528.372" width="445" height="445" stroke="#000000" stroke-width="7" stroke-miterlimit="10" fill="none"/><rect x="490.794" y="577.872" width="116" height="340" stroke="#000000" stroke-width="7" stroke-miterlimit="10" fill="#FFFFFF"/><path d="M196.342 705.387C200.42 705.366 204.316 707.073 207.064 710.086 210.092 713.227 211.727 717.456 211.6 721.816 211.742 726.274 210.096 730.603 207.029 733.84 201.232 739.971 191.563 740.242 185.432 734.445 185.264 734.286 185.1 734.123 184.939 733.957 181.902 730.69 180.294 726.344 180.475 721.887 180.317 717.216 182.199 712.707 185.631 709.535 188.522 706.806 192.367 705.317 196.342 705.387ZM195.896 707.098C193.243 707.009 190.704 708.183 189.053 710.262 186.912 712.887 185.842 716.73 185.842 721.793 185.842 726.98 186.951 730.973 189.17 733.77 190.78 735.851 193.29 737.036 195.92 736.957 198.794 737.009 201.529 735.718 203.314 733.465 205.26 731.137 206.232 727.465 206.232 722.449 206.232 717.012 205.162 712.957 203.022 710.285 201.287 708.152 198.643 706.969 195.896 707.098Z"/><path d="M213.404 718.559 220.014 715.887 220.904 715.887 220.904 720.902C221.719 719.353 222.858 717.998 224.244 716.93 225.276 716.199 226.507 715.802 227.771 715.793 229.862 715.762 231.851 716.696 233.162 718.324 235 720.598 235.943 723.466 235.811 726.387 235.934 729.74 234.797 733.018 232.623 735.574 230.98 737.51 228.552 738.604 226.014 738.551 224.992 738.574 223.975 738.407 223.014 738.059 222.231 737.722 221.516 737.245 220.904 736.652L220.904 743.191C220.842 744.133 220.933 745.079 221.174 745.992 221.369 746.406 221.7 746.741 222.111 746.941 222.885 747.231 223.713 747.351 224.537 747.293L224.537 748.16 213.287 748.16 213.287 747.293 213.873 747.293C214.638 747.33 215.399 747.16 216.076 746.801 216.392 746.607 216.635 746.315 216.768 745.969 216.993 745.014 217.076 744.03 217.014 743.051L217.014 722.754C217.058 721.867 216.995 720.978 216.826 720.105 216.726 719.766 216.516 719.469 216.229 719.262 215.894 719.058 215.506 718.96 215.115 718.98 214.623 719.006 214.139 719.117 213.686 719.309ZM220.904 722.285 220.904 730.301C220.86 731.446 220.931 732.592 221.115 733.723 221.366 734.678 221.932 735.52 222.721 736.113 223.641 736.824 224.782 737.189 225.943 737.145 227.429 737.181 228.842 736.501 229.74 735.316 231.117 733.354 231.787 730.982 231.639 728.59 231.639 725.309 230.92 722.785 229.482 721.02 228.648 719.885 227.329 719.208 225.92 719.191 225.143 719.198 224.38 719.391 223.693 719.754 222.646 720.459 221.707 721.311 220.904 722.285Z"/><path d="M242.561 724.512C242.388 727.212 243.214 729.881 244.881 732.012 246.207 733.709 248.235 734.71 250.389 734.73 251.706 734.759 252.995 734.351 254.057 733.57 255.285 732.519 256.191 731.142 256.67 729.598L257.397 730.066C257.045 732.256 256.049 734.292 254.537 735.914 253.051 737.631 250.878 738.597 248.607 738.551 246.065 738.567 243.644 737.466 241.986 735.539 240.065 733.292 239.079 730.394 239.232 727.441 239.232 723.77 240.174 720.906 242.057 718.852 243.854 716.834 246.446 715.707 249.147 715.77 251.369 715.695 253.521 716.559 255.076 718.148 256.675 719.87 257.512 722.165 257.397 724.512ZM242.561 723.152 252.498 723.152C252.491 722.163 252.325 721.182 252.006 720.246 251.641 719.401 251.033 718.683 250.26 718.184 249.542 717.701 248.699 717.44 247.834 717.434 246.516 717.442 245.259 717.988 244.354 718.945 243.271 720.087 242.634 721.58 242.561 723.152Z"/><path d="M266.514 720.34C269.029 717.309 271.428 715.793 273.709 715.793 274.784 715.764 275.841 716.072 276.732 716.672 277.684 717.408 278.388 718.418 278.748 719.566 279.153 720.966 279.328 722.423 279.264 723.879L279.264 733.043C279.205 733.977 279.316 734.914 279.592 735.809 279.761 736.197 280.054 736.518 280.424 736.723 281.096 736.994 281.822 737.106 282.545 737.051L282.545 737.895 271.928 737.895 271.928 737.051 272.373 737.051C273.103 737.117 273.835 736.958 274.471 736.594 274.893 736.252 275.186 735.777 275.303 735.246 275.393 734.516 275.424 733.779 275.396 733.043L275.396 724.254C275.495 722.795 275.233 721.334 274.635 720 274.104 719.103 273.107 718.589 272.068 718.676 270.209 718.676 268.357 719.691 266.514 721.723L266.514 733.043C266.448 733.95 266.535 734.861 266.771 735.738 266.959 736.158 267.275 736.506 267.674 736.734 268.42 737.004 269.215 737.112 270.006 737.051L270.006 737.895 259.389 737.895 259.389 737.051 259.857 737.051C260.688 737.158 261.518 736.847 262.072 736.219 262.547 735.231 262.745 734.134 262.646 733.043L262.646 725.074C262.695 723.502 262.636 721.928 262.471 720.363 262.419 719.933 262.23 719.53 261.932 719.215 261.654 719 261.309 718.892 260.959 718.91 260.419 718.932 259.887 719.051 259.389 719.262L259.037 718.418 265.506 715.793 266.514 715.793Z"/><path d="M284.701 725.355 296.818 725.355 296.818 728.895 284.701 728.895Z"/><path d="M320.701 727.254 308.396 727.254 306.24 732.27C305.808 733.135 305.538 734.072 305.443 735.035 305.457 735.547 305.714 736.021 306.135 736.312 307.053 736.804 308.082 737.051 309.123 737.027L309.123 737.895 299.115 737.895 299.115 737.027C300.039 736.949 300.927 736.634 301.693 736.113 302.851 734.767 303.749 733.217 304.342 731.543L315.521 705.387 316.342 705.387 327.404 731.824C327.928 733.352 328.753 734.758 329.83 735.961 330.695 736.645 331.763 737.02 332.865 737.027L332.865 737.895 320.326 737.895 320.326 737.027C321.225 737.066 322.115 736.847 322.893 736.395 323.311 736.088 323.559 735.601 323.561 735.082 323.441 733.95 323.124 732.847 322.623 731.824ZM320.045 725.52 314.654 712.676 309.123 725.52Z"/><path d="M343.248 723.012 343.248 732.27C343.248 734.27 343.467 735.512 343.904 735.996 344.603 736.727 345.592 737.105 346.6 737.027L347.818 737.027 347.818 737.895 334.201 737.895 334.201 737.027 335.396 737.027C336.522 737.13 337.618 736.631 338.279 735.715 338.695 734.617 338.855 733.439 338.748 732.27L338.748 711.738C338.748 709.738 338.537 708.496 338.115 708.012 337.406 707.283 336.411 706.906 335.396 706.98L334.201 706.98 334.201 706.113 345.85 706.113C348.125 706.033 350.398 706.33 352.576 706.992 354.209 707.573 355.647 708.6 356.725 709.957 357.852 711.355 358.45 713.107 358.412 714.902 358.5 717.281 357.566 719.585 355.846 721.23 354.135 722.855 351.717 723.668 348.592 723.668 347.761 723.664 346.931 723.609 346.107 723.504 345.217 723.395 344.264 723.23 343.248 723.012ZM343.248 721.676C344.076 721.832 344.811 721.949 345.451 722.027 345.995 722.099 346.543 722.138 347.092 722.145 348.701 722.152 350.234 721.464 351.299 720.258 352.507 718.924 353.143 717.169 353.068 715.371 353.079 714.047 352.791 712.737 352.225 711.539 351.724 710.428 350.888 709.502 349.834 708.891 348.76 708.294 347.547 707.991 346.318 708.012 345.281 708.045 344.252 708.194 343.248 708.457Z"/><path d="M370.131 707.848 370.131 720.41 377.115 720.41C378.928 720.41 380.139 720.137 380.748 719.59 381.686 718.554 382.175 717.189 382.107 715.793L382.975 715.793 382.975 726.855 382.107 726.855C382.015 725.84 381.795 724.839 381.451 723.879 381.145 723.308 380.659 722.855 380.068 722.59 379.129 722.225 378.122 722.065 377.115 722.121L370.131 722.121 370.131 732.598C370.079 733.458 370.143 734.321 370.318 735.164 370.448 735.474 370.679 735.73 370.975 735.891 371.54 736.115 372.149 736.207 372.756 736.16L378.146 736.16C379.462 736.212 380.779 736.086 382.061 735.785 382.949 735.488 383.753 734.982 384.404 734.309 385.607 733.002 386.61 731.525 387.381 729.926L388.318 729.926 385.576 737.895 361.084 737.895 361.084 737.027 362.209 737.027C362.954 737.029 363.687 736.843 364.342 736.488 364.818 736.264 365.185 735.859 365.361 735.363 365.594 734.357 365.685 733.324 365.631 732.293L365.631 711.645C365.631 709.629 365.428 708.387 365.022 707.918 364.26 707.219 363.237 706.878 362.209 706.98L361.084 706.98 361.084 706.113 385.576 706.113 385.928 713.074 385.014 713.074C384.843 711.873 384.475 710.709 383.924 709.629 383.497 708.98 382.878 708.481 382.154 708.199 381.078 707.909 379.963 707.791 378.85 707.848Z"/><path d="M409.014 720.293 415.834 730.465C417.016 732.406 418.428 734.196 420.041 735.797 421.039 736.57 422.259 737.001 423.521 737.027L423.521 737.895 409.881 737.895 409.881 737.027C410.564 737.046 411.245 736.951 411.896 736.746 412.22 736.609 412.5 736.386 412.705 736.102 412.903 735.85 413.014 735.542 413.021 735.223 413.02 734.853 412.948 734.487 412.811 734.145 412.427 733.429 411.996 732.74 411.521 732.082L406.131 723.926 399.475 732.457C399.001 733.025 398.578 733.633 398.209 734.273 398.07 734.571 397.998 734.895 397.998 735.223 397.994 735.715 398.23 736.179 398.631 736.465 399.366 736.876 400.203 737.071 401.045 737.027L401.045 737.895 389.771 737.895 389.771 737.027C390.48 736.971 391.176 736.805 391.834 736.535 392.826 736.115 393.756 735.564 394.6 734.895 395.716 733.956 396.722 732.895 397.6 731.73L405.1 722.262 398.842 713.098C397.698 711.224 396.23 709.569 394.506 708.211 393.28 707.426 391.86 707 390.404 706.98L390.404 706.113 405.1 706.113 405.1 706.98C404.203 706.933 403.313 707.145 402.533 707.59 402.125 707.855 401.868 708.299 401.842 708.785 401.985 709.714 402.374 710.587 402.967 711.316L407.842 718.605 413.49 711.457C413.942 710.915 414.345 710.334 414.697 709.723 414.843 709.423 414.919 709.095 414.92 708.762 414.925 708.449 414.826 708.144 414.639 707.895 414.42 707.578 414.109 707.337 413.748 707.203 413.02 707.027 412.27 706.952 411.521 706.98L411.521 706.113 422.795 706.113 422.795 706.98C422.05 706.998 421.313 707.141 420.615 707.402 419.771 707.762 418.988 708.253 418.295 708.855 417.208 709.893 416.212 711.022 415.318 712.23Z"/><path d="M187.541 764.581 187.541 763.714 201.158 763.714 201.158 764.581 200.01 764.581C198.935 764.487 197.88 764.914 197.174 765.729 196.799 766.229 196.611 767.433 196.611 769.339L196.611 784.878C196.672 786.845 196.407 788.81 195.826 790.69 195.285 792.201 194.35 793.54 193.119 794.569 191.829 795.674 190.176 796.263 188.479 796.222 187.228 796.293 185.995 795.906 185.01 795.132 184.231 794.535 183.765 793.617 183.744 792.636 183.697 792.002 183.909 791.377 184.33 790.901 184.812 790.43 185.461 790.169 186.135 790.175 186.628 790.172 187.107 790.347 187.482 790.667 188.15 791.437 188.664 792.328 188.994 793.292 189.354 794.136 189.814 794.558 190.377 794.558 190.875 794.512 191.319 794.222 191.561 793.784 192.003 792.942 192.194 791.99 192.111 791.042L192.111 769.339C192.173 768.267 192.07 767.192 191.807 766.151 191.604 765.712 191.257 765.356 190.822 765.144 190.172 764.774 189.437 764.58 188.689 764.581Z"/><path d="M213.439 773.394C216.492 773.3 219.404 774.677 221.268 777.097 222.922 779.154 223.808 781.723 223.775 784.362 223.752 786.386 223.279 788.379 222.393 790.198 220.819 793.872 217.177 796.226 213.182 796.151 210.125 796.24 207.228 794.787 205.471 792.284 203.883 790.179 203.035 787.608 203.057 784.972 203.075 782.927 203.577 780.915 204.521 779.101 205.354 777.315 206.695 775.815 208.377 774.788 209.908 773.876 211.657 773.394 213.439 773.394ZM212.713 774.917C211.829 774.933 210.967 775.188 210.217 775.655 209.277 776.275 208.566 777.184 208.189 778.245 207.624 779.766 207.362 781.382 207.416 783.003 207.342 785.813 207.983 788.595 209.279 791.089 210.521 793.354 212.158 794.487 214.189 794.487 215.669 794.505 217.066 793.807 217.939 792.612 218.924 791.362 219.416 789.214 219.416 786.167 219.416 782.354 218.596 779.354 216.955 777.167 216.008 775.753 214.415 774.908 212.713 774.917Z"/><path d="M234.346 773.394 234.346 790.644C234.289 791.548 234.388 792.456 234.639 793.327 234.81 793.745 235.115 794.096 235.506 794.323 236.17 794.593 236.888 794.706 237.604 794.651L237.604 795.495 227.174 795.495 227.174 794.651C227.891 794.707 228.611 794.603 229.283 794.347 229.67 794.112 229.97 793.759 230.139 793.339 230.406 792.467 230.513 791.554 230.455 790.644L230.455 782.37C230.502 780.859 230.431 779.347 230.244 777.847 230.19 777.452 230.009 777.086 229.729 776.804 229.453 776.595 229.113 776.491 228.768 776.511 228.22 776.534 227.68 776.653 227.174 776.862L226.846 776.018 233.314 773.393ZM232.4 762.167C233.704 762.163 234.764 763.217 234.768 764.521 234.768 764.525 234.768 764.53 234.768 764.534 234.777 765.167 234.527 765.777 234.076 766.222 233.64 766.68 233.033 766.935 232.4 766.925 231.087 766.937 230.012 765.881 230 764.567 229.988 763.253 231.044 762.179 232.358 762.167 232.372 762.167 232.386 762.167 232.4 762.167Z"/><path d="M246.533 777.94C249.049 774.909 251.447 773.394 253.729 773.394 254.803 773.365 255.86 773.672 256.752 774.272 257.704 775.009 258.407 776.019 258.768 777.167 259.173 778.567 259.347 780.023 259.283 781.479L259.283 790.644C259.224 791.578 259.335 792.515 259.611 793.409 259.781 793.797 260.073 794.118 260.443 794.323 261.116 794.594 261.842 794.706 262.564 794.651L262.564 795.495 251.947 795.495 251.947 794.651 252.393 794.651C253.122 794.718 253.854 794.558 254.49 794.194 254.912 793.852 255.206 793.377 255.322 792.847 255.413 792.116 255.444 791.379 255.416 790.644L255.416 781.854C255.514 780.396 255.253 778.935 254.654 777.601 254.123 776.704 253.126 776.19 252.088 776.276 250.228 776.276 248.377 777.292 246.533 779.323L246.533 790.644C246.467 791.55 246.554 792.461 246.791 793.339 246.979 793.758 247.295 794.107 247.693 794.335 248.439 794.605 249.234 794.713 250.025 794.651L250.025 795.495 239.408 795.495 239.408 794.651 239.877 794.651C240.708 794.759 241.537 794.447 242.092 793.819 242.566 792.832 242.765 791.735 242.666 790.644L242.666 782.675C242.714 781.102 242.656 779.528 242.49 777.964 242.439 777.533 242.25 777.13 241.951 776.815 241.674 776.601 241.329 776.493 240.979 776.511 240.438 776.533 239.906 776.652 239.408 776.862L239.057 776.019 245.525 773.394 246.533 773.394Z"/><path d="M270.51 766.972 270.51 774.026 275.525 774.026 275.525 775.667 270.51 775.667 270.51 789.589C270.409 790.566 270.618 791.55 271.107 792.401 271.476 792.872 272.045 793.141 272.643 793.128 273.179 793.121 273.702 792.954 274.143 792.647 274.651 792.298 275.043 791.804 275.268 791.229L276.182 791.229C275.757 792.581 274.952 793.782 273.861 794.686 272.991 795.412 271.9 795.821 270.768 795.847 270.024 795.84 269.295 795.633 268.658 795.249 267.978 794.859 267.444 794.258 267.135 793.538 266.749 792.436 266.582 791.27 266.643 790.104L266.643 775.667 263.244 775.667 263.244 774.894C264.22 774.474 265.113 773.882 265.881 773.147 266.811 772.289 267.619 771.307 268.283 770.229 268.857 769.179 269.358 768.091 269.783 766.972Z"/><path d="M319.752 795.495 307.471 768.753 307.471 789.987C307.471 791.94 307.682 793.159 308.104 793.644 308.829 794.358 309.832 794.717 310.846 794.628L311.971 794.628 311.971 795.495 300.908 795.495 300.908 794.628 302.033 794.628C303.132 794.737 304.211 794.278 304.893 793.409 305.344 792.328 305.521 791.153 305.408 789.987L305.408 769.222C305.472 768.184 305.312 767.145 304.939 766.175 304.672 765.674 304.248 765.275 303.732 765.038 302.837 764.677 301.872 764.521 300.908 764.581L300.908 763.714 309.908 763.714 321.439 788.581 332.783 763.714 341.783 763.714 341.783 764.581 340.682 764.581C339.576 764.469 338.489 764.928 337.799 765.8 337.348 766.881 337.171 768.056 337.283 769.222L337.283 789.987C337.283 791.94 337.502 793.159 337.939 793.644 338.665 794.358 339.668 794.717 340.682 794.628L341.783 794.628 341.783 795.495 328.283 795.495 328.283 794.628 329.408 794.628C330.508 794.744 331.59 794.283 332.268 793.409 332.719 792.328 332.896 791.153 332.783 789.987L332.783 768.753 320.525 795.495Z"/><path d="M354.791 773.394C357.843 773.3 360.755 774.677 362.619 777.097 364.273 779.154 365.16 781.723 365.127 784.362 365.103 786.386 364.631 788.379 363.744 790.198 362.171 793.872 358.529 796.226 354.533 796.151 351.476 796.24 348.579 794.787 346.822 792.284 345.235 790.179 344.386 787.608 344.408 784.972 344.427 782.927 344.929 780.915 345.873 779.101 346.705 777.315 348.047 775.815 349.728 774.788 351.26 773.876 353.009 773.394 354.791 773.394ZM354.064 774.917C353.181 774.933 352.318 775.188 351.568 775.655 350.629 776.275 349.917 777.184 349.541 778.245 348.976 779.766 348.713 781.382 348.768 783.003 348.693 785.813 349.334 788.595 350.631 791.089 351.873 793.354 353.51 794.487 355.541 794.487 357.021 794.505 358.418 793.807 359.291 792.612 360.275 791.362 360.768 789.214 360.768 786.167 360.768 782.354 359.947 779.354 358.307 777.167 357.36 775.753 355.766 774.908 354.064 774.917Z"/><path d="M374.525 766.972 374.525 774.026 379.541 774.026 379.541 775.667 374.525 775.667 374.525 789.589C374.424 790.566 374.633 791.55 375.123 792.401 375.492 792.872 376.061 793.141 376.658 793.128 377.195 793.121 377.717 792.954 378.158 792.647 378.666 792.298 379.058 791.804 379.283 791.229L380.197 791.229C379.773 792.581 378.967 793.782 377.877 794.686 377.007 795.412 375.916 795.821 374.783 795.847 374.039 795.84 373.311 795.633 372.674 795.249 371.994 794.859 371.459 794.258 371.15 793.538 370.765 792.436 370.598 791.27 370.658 790.104L370.658 775.667 367.26 775.667 367.26 774.894C368.236 774.474 369.129 773.882 369.896 773.147 370.827 772.289 371.635 771.307 372.299 770.229 372.872 769.179 373.374 768.09 373.799 766.972Z"/><path d="M392.127 773.394C395.18 773.3 398.091 774.677 399.955 777.097 401.609 779.154 402.496 781.723 402.463 784.362 402.439 786.386 401.967 788.379 401.08 790.198 399.507 793.872 395.865 796.226 391.869 796.151 388.812 796.24 385.915 794.787 384.158 792.284 382.571 790.179 381.722 787.608 381.744 784.972 381.763 782.927 382.265 780.915 383.209 779.101 384.042 777.315 385.383 775.815 387.065 774.788 388.596 773.876 390.345 773.394 392.127 773.394ZM391.4 774.917C390.517 774.933 389.654 775.188 388.904 775.655 387.965 776.275 387.253 777.184 386.877 778.245 386.312 779.766 386.049 781.382 386.104 783.003 386.029 785.813 386.67 788.595 387.967 791.089 389.209 793.354 390.846 794.487 392.877 794.487 394.357 794.505 395.754 793.807 396.627 792.612 397.611 791.362 398.104 789.214 398.104 786.167 398.104 782.354 397.283 779.354 395.643 777.167 394.696 775.753 393.102 774.908 391.4 774.917Z"/><path d="M411.908 773.394 411.908 778.222C413.705 775.003 415.549 773.394 417.439 773.394 418.226 773.366 418.991 773.648 419.572 774.179 420.103 774.633 420.411 775.296 420.416 775.995 420.429 776.572 420.209 777.129 419.807 777.542 419.434 777.949 418.906 778.179 418.354 778.175 417.667 778.117 417.02 777.833 416.514 777.366 416.098 776.957 415.573 776.676 415.002 776.558 414.649 776.592 414.322 776.76 414.088 777.026 413.186 777.949 412.448 779.019 411.908 780.19L411.908 790.479C411.86 791.4 412.012 792.319 412.354 793.175 412.592 793.632 412.969 794.001 413.432 794.229 414.129 794.548 414.893 794.693 415.658 794.651L415.658 795.495 404.666 795.495 404.666 794.651C405.511 794.709 406.355 794.53 407.103 794.136 407.517 793.854 407.809 793.427 407.924 792.94 408.034 792.188 408.074 791.427 408.041 790.667L408.041 782.347C408.087 780.857 408.036 779.365 407.889 777.882 407.828 777.479 407.629 777.11 407.326 776.839 407.035 776.614 406.674 776.498 406.307 776.511 405.743 776.527 405.187 776.646 404.666 776.862L404.432 776.018 410.924 773.393Z"/><path d="M280.131 853.751 282.311 843.087 278.303 843.087 278.303 841.165 282.686 841.165 284.303 833.126 278.303 833.126 278.303 831.251 284.748 831.251 286.881 820.587 288.826 820.587 286.693 831.251 294.592 831.251 296.865 820.587 298.811 820.587 296.584 831.251 300.568 831.251 300.568 833.126 296.232 833.126 294.592 841.165 300.568 841.165 300.568 843.087 294.193 843.087 292.014 853.751 290.115 853.751 292.248 843.087 284.303 843.087 282.076 853.751ZM284.654 841.165 292.6 841.165 294.287 833.126 286.295 833.126Z"/><path d="M322.951 820.657 322.951 821.524C321.21 821.647 319.503 822.063 317.9 822.755 316.46 823.47 315.153 824.425 314.033 825.579 312.775 826.825 311.708 828.25 310.869 829.81 309.955 831.569 309.251 833.429 308.771 835.353 310.737 833.901 313.102 833.091 315.545 833.032 317.722 833.034 319.788 833.994 321.193 835.657 322.828 837.517 323.684 839.934 323.584 842.407 323.596 845.028 322.748 847.58 321.17 849.673 319.448 852.218 316.554 853.717 313.482 853.657 311.425 853.702 309.435 852.926 307.951 851.501 304.973 848.684 303.351 844.723 303.498 840.626 303.487 837.832 304.071 835.068 305.209 832.517 306.362 829.937 308.024 827.617 310.096 825.696 311.829 823.96 313.899 822.596 316.178 821.689 317.911 821.039 319.742 820.69 321.592 820.657ZM308.373 837.063C308.125 838.756 307.984 840.463 307.951 842.173 307.978 843.835 308.259 845.483 308.783 847.06 309.234 848.644 310.085 850.085 311.256 851.243 312.044 851.974 313.087 852.37 314.162 852.345 315.609 852.301 316.954 851.592 317.807 850.423 318.971 848.841 319.54 846.899 319.412 844.938 319.474 842.529 318.926 840.142 317.818 838.001 317.021 836.217 315.249 835.07 313.295 835.071 312.641 835.083 311.994 835.21 311.385 835.446 310.333 835.892 309.325 836.433 308.373 837.063Z"/><path d="M548.372 596.069 540.567 619.043 536.349 619.043 528.72 596.069 532.253 596.069 537.21 611.555 538.616 616.09 540.058 611.555 545.032 596.069Z" fill="#FF0000"/><path d="M566.759 610.799 559.851 610.799 559.851 617.971 556.827 617.971 556.827 610.799 549.919 610.799 549.919 608.127 556.827 608.127 556.827 601.008 559.851 601.008 559.851 608.127 566.759 608.127Z" fill="#FF0000"/><path d="M536.437 640.171C535.599 639.722 534.715 639.365 533.8 639.108 532.837 638.848 531.844 638.721 530.847 638.73 529.728 638.709 528.619 638.931 527.595 639.38 526.664 639.8 525.843 640.428 525.195 641.217 524.516 642.063 524.008 643.033 523.701 644.074 523.343 645.271 523.169 646.516 523.183 647.765 523.167 649.037 523.309 650.307 523.604 651.544 523.844 652.569 524.293 653.532 524.923 654.375 525.525 655.151 526.314 655.762 527.217 656.15 528.278 656.585 529.419 656.794 530.565 656.765 530.788 656.765 531.028 656.753 531.286 656.73 531.544 656.707 531.802 656.674 532.06 656.633 532.317 656.592 532.566 656.542 532.807 656.484 533.024 656.432 533.238 656.368 533.448 656.291L533.448 648.978 528.755 648.978 528.755 646.394 536.542 646.394 536.542 658.136C536.047 658.365 535.539 658.564 535.021 658.734 534.485 658.91 533.939 659.057 533.387 659.173 532.838 659.289 532.283 659.377 531.726 659.437 531.194 659.495 530.66 659.524 530.126 659.525 528.677 659.546 527.237 659.296 525.881 658.787 524.653 658.316 523.552 657.567 522.664 656.598 521.735 655.553 521.039 654.321 520.625 652.986 520.124 651.364 519.884 649.673 519.913 647.976 519.887 646.253 520.154 644.538 520.704 642.905 521.178 641.501 521.935 640.208 522.928 639.108 523.885 638.07 525.062 637.259 526.373 636.735 527.785 636.177 529.293 635.899 530.812 635.917 531.799 635.913 532.785 636.005 533.756 636.19 534.682 636.37 535.582 636.662 536.437 637.06Z"/><path d="M556.265 659.208 552.187 659.208 545.489 644.882 543.556 640.277 543.556 659.208 540.638 659.208 540.638 636.234 544.663 636.234 551.044 649.804 553.347 655.06 553.347 636.234 556.265 636.234Z"/><path d="M576.849 647.466C576.852 648.526 576.767 649.585 576.594 650.63 576.436 651.597 576.161 652.542 575.776 653.443 575.409 654.298 574.917 655.095 574.317 655.807 573.696 656.536 572.952 657.152 572.12 657.626 571.174 658.161 570.156 658.555 569.097 658.795 567.811 659.086 566.495 659.224 565.177 659.208L560.255 659.208 560.255 636.234 566.179 636.234C569.765 636.234 572.439 637.157 574.203 639.002 575.967 640.848 576.849 643.669 576.849 647.466ZM573.562 647.695C573.589 646.304 573.436 644.915 573.105 643.564 572.862 642.559 572.386 641.626 571.716 640.839 571.083 640.14 570.276 639.622 569.378 639.336 568.308 639.007 567.193 638.849 566.073 638.871L563.384 638.871 563.384 656.501 565.722 656.501C570.948 656.501 573.562 653.566 573.562 647.695Z"/><path d="M536.244 698.512C534.411 699.272 532.445 699.66 530.461 699.654 527.215 699.654 524.721 698.685 522.98 696.745 521.24 694.806 520.37 691.938 520.371 688.141 520.349 686.449 520.592 684.765 521.092 683.148 521.517 681.761 522.216 680.473 523.148 679.36 524.033 678.328 525.138 677.508 526.383 676.961 527.725 676.383 529.175 676.095 530.637 676.117 531.633 676.111 532.628 676.202 533.607 676.39 534.515 676.569 535.399 676.849 536.244 677.225L536.244 680.301C535.428 679.85 534.56 679.499 533.66 679.255 532.708 679.007 531.726 678.886 530.742 678.895 529.734 678.88 528.734 679.087 527.814 679.501 526.945 679.903 526.183 680.505 525.592 681.259 524.947 682.097 524.469 683.052 524.185 684.071 523.841 685.304 523.675 686.58 523.693 687.859 523.693 690.836 524.297 693.08 525.504 694.592 526.812 696.15 528.783 696.992 530.812 696.859 531.766 696.863 532.717 696.748 533.643 696.517 534.541 696.29 535.413 695.969 536.244 695.559Z" fill="#999999"/><path d="M557.373 687.736C557.409 689.545 557.162 691.348 556.643 693.08 556.234 694.435 555.565 695.698 554.674 696.798 553.892 697.743 552.898 698.49 551.773 698.978 549.41 699.957 546.748 699.925 544.408 698.89 543.319 698.362 542.382 697.567 541.684 696.578 540.917 695.465 540.371 694.215 540.076 692.896 539.707 691.29 539.53 689.647 539.549 688 539.515 686.204 539.758 684.413 540.27 682.691 540.673 681.336 541.338 680.073 542.229 678.974 543.008 678.03 543.999 677.284 545.121 676.794 546.226 676.319 547.417 676.076 548.619 676.082 549.95 676.051 551.27 676.328 552.477 676.891 553.565 677.423 554.505 678.218 555.211 679.202 555.984 680.308 556.536 681.552 556.836 682.867 557.211 684.463 557.391 686.097 557.373 687.736ZM554.121 687.965C554.13 686.725 554.027 685.486 553.812 684.265 553.645 683.252 553.31 682.275 552.82 681.373 552.401 680.605 551.793 679.958 551.053 679.492 550.263 679.029 549.359 678.797 548.443 678.824 547.544 678.8 546.658 679.048 545.902 679.536 545.174 680.032 544.575 680.695 544.154 681.47 543.668 682.366 543.324 683.333 543.135 684.335 542.907 685.484 542.795 686.653 542.801 687.824 542.791 689.071 542.897 690.315 543.117 691.542 543.289 692.55 543.624 693.524 544.109 694.425 544.524 695.188 545.126 695.832 545.859 696.297 546.64 696.76 547.536 696.991 548.443 696.965 549.345 696.988 550.233 696.74 550.992 696.253 551.726 695.758 552.331 695.095 552.758 694.319 553.249 693.427 553.597 692.463 553.787 691.463 554.016 690.311 554.128 689.139 554.121 687.965Z" fill="#999999"/><path d="M577.271 699.373 574.213 699.373 573.756 685.047 573.562 679.545 572.49 682.744 569.098 691.885 566.936 691.885 563.701 683.096 562.629 679.545 562.559 685.293 562.154 699.373 559.201 699.373 560.326 676.398 564.035 676.398 567.129 685.047 568.131 687.965 569.098 685.047 572.35 676.398 576.164 676.398Z" fill="#999999"/><path d="M545.244 739.538 532.184 739.538 532.184 716.563 545.244 716.563 545.244 719.2 535.312 719.2 535.312 726.319 544.857 726.319 544.857 728.956 535.312 728.956 535.312 736.866 545.244 736.866Z" fill="#999999"/><path d="M566.162 739.538 562.084 739.538 555.387 725.212 553.453 720.606 553.453 739.538 550.535 739.538 550.535 716.563 554.561 716.563 560.941 730.134 563.244 735.39 563.244 716.563 566.162 716.563Z" fill="#999999"/><path d="M536.278 773.48C536.301 774.477 536.071 775.462 535.61 776.346 535.163 777.168 534.524 777.871 533.747 778.394 532.871 778.972 531.897 779.386 530.873 779.615 529.66 779.895 528.418 780.031 527.173 780.02 526.563 780.02 525.957 779.996 525.354 779.949 524.75 779.902 524.17 779.844 523.613 779.773 523.057 779.703 522.532 779.621 522.04 779.527 521.548 779.434 521.103 779.334 520.704 779.229L520.704 776.205C521.665 776.555 522.657 776.814 523.666 776.979 524.901 777.177 526.151 777.271 527.401 777.26 528.266 777.274 529.129 777.194 529.977 777.022 530.596 776.901 531.187 776.662 531.717 776.319 532.142 776.038 532.483 775.646 532.701 775.186 532.914 774.704 533.019 774.182 533.009 773.656 533.024 773.082 532.841 772.52 532.49 772.065 532.109 771.595 531.648 771.197 531.128 770.888 530.515 770.517 529.871 770.199 529.203 769.938 528.482 769.651 527.747 769.355 526.997 769.051 526.247 768.746 525.512 768.415 524.791 768.058 524.099 767.719 523.452 767.294 522.866 766.792 522.308 766.311 521.846 765.73 521.504 765.078 521.142 764.353 520.964 763.55 520.985 762.74 520.988 761.941 521.156 761.151 521.478 760.42 521.824 759.634 522.347 758.939 523.007 758.39 523.794 757.745 524.698 757.259 525.67 756.957 526.924 756.569 528.233 756.385 529.546 756.412 529.933 756.412 530.352 756.43 530.803 756.465 531.254 756.5 531.711 756.55 532.174 756.614 532.637 756.679 533.094 756.752 533.545 756.834 533.996 756.916 534.415 757.004 534.802 757.098L534.802 759.91C533.913 759.655 533.009 759.459 532.095 759.321 531.228 759.189 530.352 759.122 529.476 759.119 528.097 759.016 526.72 759.329 525.521 760.016 524.712 760.547 524.234 761.457 524.255 762.424 524.24 763.001 524.423 763.565 524.773 764.023 525.154 764.499 525.615 764.904 526.136 765.219 526.747 765.595 527.392 765.916 528.061 766.177 528.781 766.464 529.517 766.76 530.267 767.064 531.017 767.369 531.752 767.703 532.473 768.066 533.167 768.412 533.814 768.846 534.398 769.358 534.956 769.852 535.418 770.445 535.76 771.107 536.121 771.845 536.299 772.659 536.278 773.481Z" fill="#999999"/><path d="M556.827 759.4 550.024 759.4 550.024 779.703 546.86 779.703 546.86 759.4 540.058 759.4 540.058 756.729 556.827 756.729Z" fill="#999999"/><path d="M576.198 763.76C576.195 764.713 576.017 765.658 575.671 766.546 575.311 767.478 574.754 768.321 574.036 769.016 573.222 769.79 572.259 770.391 571.206 770.782 569.889 771.262 568.494 771.492 567.093 771.459L564.245 771.459 564.245 779.703 561.116 779.703 561.116 756.729 567.585 756.729C568.686 756.724 569.784 756.851 570.855 757.106 571.841 757.333 572.775 757.748 573.606 758.328 574.4 758.894 575.047 759.641 575.495 760.508 575.991 761.518 576.232 762.635 576.198 763.76ZM572.946 763.9C573.025 762.604 572.487 761.347 571.496 760.508 570.322 759.658 568.89 759.242 567.444 759.33L564.245 759.33 564.245 768.787 567.163 768.787C568.687 768.885 570.198 768.457 571.443 767.574 572.494 766.654 573.051 765.293 572.946 763.9Z" fill="#999999"/><path d="M537.263 808.126C537.266 809.186 537.181 810.244 537.008 811.29 536.85 812.257 536.575 813.201 536.19 814.103 535.823 814.958 535.331 815.755 534.731 816.467 534.11 817.196 533.366 817.811 532.534 818.286 531.589 818.821 530.57 819.214 529.511 819.455 528.225 819.745 526.909 819.884 525.591 819.868L520.669 819.868 520.669 796.894 526.593 796.894C530.179 796.894 532.854 797.816 534.617 799.662 536.381 801.508 537.263 804.329 537.263 808.126ZM533.976 808.354C534.003 806.964 533.85 805.575 533.519 804.224 533.276 803.219 532.8 802.286 532.13 801.499 531.497 800.8 530.691 800.281 529.792 799.996 528.722 799.666 527.607 799.509 526.487 799.53L523.798 799.53 523.798 817.161 526.136 817.161C531.362 817.161 533.976 814.226 533.976 808.354Z" fill="#999999"/><path d="M546.86 799.53 541.569 799.53 541.569 796.894 555.315 796.894 555.315 799.53 550.024 799.53 550.024 817.196 555.315 817.196 555.315 819.868 541.569 819.868 541.569 817.196 546.86 817.196Z" fill="#999999"/><path d="M576.813 819.868 573.28 819.868 569.853 812.521C569.636 812.03 569.371 811.562 569.062 811.123 568.822 810.784 568.528 810.487 568.191 810.244 567.883 810.028 567.537 809.87 567.172 809.778 566.766 809.68 566.35 809.633 565.933 809.638L564.456 809.638 564.456 819.868 561.327 819.868 561.327 796.894 567.479 796.894C568.643 796.871 569.804 797.019 570.925 797.333 571.789 797.575 572.595 797.994 573.289 798.563 573.893 799.075 574.359 799.731 574.643 800.471 574.938 801.26 575.084 802.098 575.073 802.94 575.077 803.63 574.97 804.315 574.757 804.971 574.55 805.602 574.231 806.192 573.816 806.711 573.383 807.248 572.859 807.706 572.27 808.064 571.614 808.462 570.899 808.749 570.151 808.917 570.799 809.142 571.37 809.548 571.795 810.086 572.331 810.777 572.793 811.523 573.175 812.31ZM571.804 803.204C571.881 802.153 571.453 801.129 570.652 800.444 569.706 799.781 568.563 799.459 567.409 799.53L564.456 799.53 564.456 807.124 566.987 807.124C567.661 807.133 568.333 807.047 568.982 806.869 569.532 806.721 570.046 806.464 570.494 806.113 570.907 805.783 571.238 805.362 571.461 804.883 571.698 804.356 571.815 803.782 571.804 803.204Z" fill="#999999"/><path d="M517.436 860.033 513.902 860.033 510.475 852.686C510.258 852.195 509.993 851.727 509.684 851.288 509.444 850.949 509.149 850.652 508.813 850.409 508.504 850.193 508.158 850.035 507.793 849.943 507.388 849.845 506.972 849.798 506.555 849.803L505.078 849.803 505.078 860.033 501.949 860.033 501.949 837.059 508.102 837.059C509.265 837.036 510.426 837.184 511.547 837.498 512.411 837.74 513.216 838.159 513.91 838.729 514.514 839.24 514.98 839.896 515.264 840.636 515.559 841.425 515.706 842.263 515.695 843.105 515.699 843.795 515.592 844.48 515.379 845.136 515.171 845.767 514.853 846.357 514.438 846.876 514.004 847.413 513.48 847.871 512.891 848.229 512.236 848.627 511.521 848.914 510.773 849.082 511.421 849.307 511.991 849.713 512.416 850.251 512.952 850.942 513.415 851.688 513.797 852.475ZM512.426 843.369C512.503 842.318 512.075 841.293 511.273 840.609 510.328 839.946 509.184 839.624 508.031 839.695L505.078 839.695 505.078 847.289 507.609 847.289C508.283 847.298 508.954 847.212 509.604 847.034 510.153 846.886 510.667 846.629 511.115 846.278 511.528 845.948 511.859 845.527 512.082 845.048 512.319 844.521 512.437 843.947 512.426 843.369Z" fill="#009245"/><path d="M535.752 835.195 523.693 863.812 520.775 863.812 532.834 835.195Z" fill="#009245"/><path d="M558.164 860.033 554.754 860.033 553.154 855.023 543.592 855.023 541.975 860.033 538.723 860.033 546.352 837.059 550.641 837.059ZM552.258 852.229 548.373 839.941 544.488 852.229Z" fill="#009245"/><path d="M575.338 835.195 563.279 863.812 560.361 863.812 572.42 835.195Z" fill="#009245"/><path d="M595.992 860.033 592.863 860.033 592.863 849.486 583.213 849.486 583.213 860.033 580.084 860.033 580.084 837.059 583.213 837.059 583.213 846.779 592.863 846.779 592.863 837.059 595.992 837.059Z" fill="#009245"/><path d="M517.242 879.896 510.439 879.896 510.439 900.198 507.275 900.198 507.275 879.896 500.473 879.896 500.473 877.224 517.242 877.224Z" fill="#0000FF"/><path d="M535.752 875.36 523.693 903.978 520.775 903.978 532.834 875.36Z" fill="#0000FF"/><path d="M556.406 893.325C556.426 894.338 556.206 895.341 555.765 896.252 555.334 897.104 554.708 897.842 553.937 898.405 553.073 899.025 552.101 899.478 551.071 899.741 549.852 900.058 548.596 900.212 547.336 900.198L541.324 900.198 541.324 877.224 547.898 877.224C553.02 877.224 555.58 879.087 555.58 882.813 555.611 883.945 555.302 885.059 554.692 886.013 553.984 886.986 552.964 887.687 551.801 887.999 552.415 888.114 553.01 888.315 553.567 888.597 554.116 888.872 554.613 889.241 555.035 889.687 555.466 890.146 555.806 890.683 556.037 891.268 556.292 891.924 556.417 892.622 556.406 893.325ZM552.328 883.235C552.331 882.784 552.26 882.336 552.117 881.908 551.975 881.49 551.719 881.118 551.379 880.836 550.959 880.502 550.474 880.26 549.955 880.124 549.215 879.931 548.452 879.842 547.688 879.86L544.453 879.86 544.453 887.05 547.582 887.05C548.237 887.057 548.889 886.98 549.524 886.821 550.064 886.688 550.572 886.449 551.018 886.118 551.431 885.806 551.763 885.399 551.985 884.932 552.226 884.399 552.343 883.819 552.328 883.235ZM553.084 893.431C553.093 892.881 552.966 892.338 552.715 891.849 552.461 891.371 552.092 890.963 551.643 890.662 551.119 890.316 550.539 890.063 549.929 889.915 549.184 889.731 548.419 889.642 547.652 889.651L544.453 889.651 544.453 897.562 547.758 897.562C549.167 897.665 550.571 897.314 551.766 896.56 552.689 895.794 553.181 894.626 553.084 893.431Z" fill="#0000FF"/><path d="M575.338 875.36 563.279 903.978 560.361 903.978 572.42 875.36Z" fill="#0000FF"/><path d="M595.447 900.198 582.229 900.198 582.229 877.224 585.41 877.224 585.41 897.526 595.447 897.526Z" fill="#0000FF"/><line x1="716.628" y1="169.372" x2="716.628" y2="646.372" stroke="#000000" stroke-width="4" stroke-miterlimit="10" fill="none"/><line x1="779.282" y1="240.251" x2="778.961" y2="847.372" stroke="#009245" stroke-width="4" stroke-miterlimit="10" fill="none"/><path d="M764.464 251.477 779.28 245.192 794.089 251.493 779.295 216.372 764.464 251.477Z" fill="#009245"/><line x1="841.294" y1="287.251" x2="841.294" y2="889.372" stroke="#0000FF" stroke-width="4" stroke-miterlimit="10" fill="none"/><path d="M826.482 298.485 841.294 292.192 856.107 298.485 841.294 263.372 826.482 298.485Z" fill="#0000FF"/><line x1="608.294" y1="646.372" x2="718.294" y2="646.372" stroke="#000000" stroke-width="4" stroke-miterlimit="10" fill="none"/><line x1="781.294" y1="847.372" x2="634.173" y2="847.372" stroke="#009245" stroke-width="4" stroke-miterlimit="10" fill="none"/><path d="M645.407 832.559 639.115 847.372 645.407 862.184 610.294 847.372 645.407 832.559Z" fill="#009245"/><line x1="842.294" y1="889.372" x2="633.173" y2="889.372" stroke="#0000FF" stroke-width="4" stroke-miterlimit="10" fill="none"/><path d="M644.407 874.559 638.115 889.372 644.407 904.184 609.294 889.372 644.407 874.559Z" fill="#0000FF"/><line x1="963" y1="122.122" x2="969" y2="122.122" stroke="#FF0000" stroke-width="4" stroke-miterlimit="10" fill="none"/><line x1="980.714" y1="122.122" x2="1045.14" y2="122.122" stroke="#FF0000" stroke-width="4" stroke-miterlimit="10" stroke-dasharray="11.7143 11.7143" fill="none"/><line x1="1051" y1="122.122" x2="1057" y2="122.122" stroke="#FF0000" stroke-width="4" stroke-miterlimit="10" fill="none"/><line x1="963" y1="263.122" x2="969" y2="263.122" stroke="#0000FF" stroke-width="4" stroke-miterlimit="10" fill="none"/><line x1="980.714" y1="263.122" x2="1045.14" y2="263.122" stroke="#0000FF" stroke-width="4" stroke-miterlimit="10" stroke-dasharray="11.7143 11.7143" fill="none"/><line x1="1051" y1="263.122" x2="1057" y2="263.122" stroke="#0000FF" stroke-width="4" stroke-miterlimit="10" fill="none"/><line x1="963" y1="216.122" x2="969" y2="216.122" stroke="#009245" stroke-width="4" stroke-miterlimit="10" fill="none"/><line x1="980.714" y1="216.122" x2="1045.14" y2="216.122" stroke="#009245" stroke-width="4" stroke-miterlimit="10" stroke-dasharray="11.7143 11.7143" fill="none"/><line x1="1051" y1="216.122" x2="1057" y2="216.122" stroke="#009245" stroke-width="4" stroke-miterlimit="10" fill="none"/><line x1="963" y1="169.122" x2="969" y2="169.122" stroke="#000000" stroke-width="4" stroke-miterlimit="10" fill="none"/><line x1="980.714" y1="169.122" x2="1045.14" y2="169.122" stroke="#000000" stroke-width="4" stroke-miterlimit="10" stroke-dasharray="11.7143 11.7143" fill="none"/><line x1="1051" y1="169.122" x2="1057" y2="169.122" stroke="#000000" stroke-width="4" stroke-miterlimit="10" fill="none"/><path d="M2156.1 133.665 2140.96 133.665 2140.96 130.922 2146.9 125.016C2147.88 124.055 2148.67 123.223 2149.28 122.52 2149.81 121.923 2150.29 121.278 2150.7 120.595 2151.01 120.085 2151.24 119.531 2151.39 118.952 2151.51 118.403 2151.57 117.843 2151.56 117.282 2151.57 116.737 2151.49 116.195 2151.33 115.673 2151.19 115.183 2150.95 114.725 2150.63 114.329 2150.3 113.93 2149.88 113.617 2149.4 113.415 2148.83 113.178 2148.21 113.065 2147.59 113.081 2146.66 113.069 2145.75 113.293 2144.94 113.731 2144.12 114.178 2143.38 114.747 2142.74 115.418L2141.05 113.397C2141.91 112.49 2142.92 111.745 2144.05 111.2 2145.28 110.626 2146.63 110.344 2147.99 110.374 2148.94 110.362 2149.89 110.516 2150.78 110.831 2151.59 111.116 2152.33 111.565 2152.95 112.149 2153.57 112.74 2154.05 113.46 2154.37 114.258 2154.71 115.155 2154.88 116.11 2154.87 117.071 2154.87 117.898 2154.76 118.722 2154.52 119.514 2154.26 120.305 2153.9 121.059 2153.45 121.755 2152.92 122.574 2152.32 123.347 2151.66 124.067 2150.94 124.864 2150.09 125.737 2149.1 126.686L2144.94 130.747 2156.1 130.747Z" fill="#FF0000"/><path d="M2177.03 128.584 2173.11 128.584 2173.11 133.665 2169.98 133.665 2169.98 128.584 2158.93 128.584 2158.93 125.895 2168.72 110.69 2173.11 110.69 2173.11 125.895 2177.03 125.895ZM2169.98 113.643 2161.99 125.895 2169.98 125.895Z" fill="#FF0000"/><path d="M2197.69 110.69 2189.88 133.665 2185.66 133.665 2178.04 110.69 2181.57 110.69 2186.53 126.176 2187.93 130.711 2189.37 126.176 2194.35 110.69Z" fill="#FF0000"/><path d="M2156.06 161.381C2155.23 160.931 2154.34 160.574 2153.43 160.317 2152.46 160.058 2151.47 159.93 2150.47 159.939 2149.35 159.919 2148.24 160.141 2147.22 160.59 2146.29 161.009 2145.47 161.638 2144.82 162.427 2144.14 163.273 2143.63 164.243 2143.33 165.283 2142.97 166.481 2142.79 167.725 2142.81 168.975 2142.79 170.247 2142.93 171.516 2143.23 172.754 2143.47 173.778 2143.92 174.742 2144.55 175.584 2145.15 176.361 2145.94 176.972 2146.84 177.359 2147.9 177.794 2149.04 178.004 2150.19 177.975 2150.41 177.975 2150.65 177.963 2150.91 177.939 2151.17 177.916 2151.43 177.884 2151.69 177.843 2151.94 177.802 2152.19 177.752 2152.43 177.693 2152.65 177.642 2152.86 177.577 2153.07 177.5L2153.07 170.188 2148.38 170.188 2148.38 167.604 2156.17 167.604 2156.17 179.346C2155.67 179.574 2155.17 179.774 2154.65 179.943 2154.11 180.12 2153.57 180.267 2153.01 180.383 2152.46 180.499 2151.91 180.587 2151.35 180.646 2150.82 180.704 2150.29 180.733 2149.75 180.734 2148.3 180.756 2146.86 180.505 2145.51 179.996 2144.28 179.526 2143.18 178.777 2142.29 177.808 2141.36 176.763 2140.67 175.531 2140.25 174.195 2139.75 172.574 2139.51 170.883 2139.54 169.186 2139.51 167.462 2139.78 165.748 2140.33 164.114 2140.8 162.71 2141.56 161.418 2142.55 160.317 2143.51 159.279 2144.69 158.468 2146 157.944 2147.41 157.386 2148.92 157.109 2150.44 157.127 2151.43 157.123 2152.41 157.214 2153.38 157.399 2154.31 157.579 2155.21 157.871 2156.06 158.27Z"/><path d="M2175.89 180.418 2171.81 180.418 2165.12 166.092 2163.18 161.486 2163.18 180.418 2160.26 180.418 2160.26 157.443 2164.29 157.443 2170.67 171.014 2172.97 176.27 2172.97 157.443 2175.89 157.443Z"/><path d="M2196.47 168.676C2196.48 169.736 2196.39 170.794 2196.22 171.84 2196.06 172.807 2195.79 173.751 2195.4 174.652 2195.03 175.508 2194.54 176.304 2193.94 177.017 2193.32 177.746 2192.58 178.361 2191.75 178.836 2190.8 179.37 2189.78 179.764 2188.72 180.005 2187.44 180.295 2186.12 180.434 2184.8 180.418L2179.88 180.418 2179.88 157.443 2185.8 157.443C2189.39 157.443 2192.07 158.366 2193.83 160.212 2195.59 162.058 2196.47 164.879 2196.47 168.676ZM2193.19 168.904C2193.22 167.513 2193.06 166.125 2192.73 164.773 2192.49 163.769 2192.01 162.835 2191.34 162.049 2190.71 161.35 2189.9 160.831 2189 160.546 2187.93 160.216 2186.82 160.059 2185.7 160.08L2183.01 160.08 2183.01 177.711 2185.35 177.711C2190.57 177.711 2193.19 174.775 2193.19 168.904Z"/><path d="M2156.85 227.172 2153.32 227.172 2149.89 219.824C2149.68 219.333 2149.41 218.865 2149.1 218.427 2148.86 218.088 2148.57 217.791 2148.23 217.548 2147.92 217.332 2147.58 217.174 2147.21 217.082 2146.81 216.984 2146.39 216.937 2145.97 216.941L2144.5 216.941 2144.5 227.172 2141.37 227.172 2141.37 204.197 2147.52 204.197C2148.68 204.174 2149.84 204.322 2150.96 204.637 2151.83 204.879 2152.63 205.298 2153.33 205.867 2153.93 206.379 2154.4 207.035 2154.68 207.774 2154.98 208.564 2155.12 209.401 2155.11 210.244 2155.12 210.933 2155.01 211.619 2154.8 212.274 2154.59 212.906 2154.27 213.495 2153.86 214.015 2153.42 214.552 2152.9 215.01 2152.31 215.368 2151.65 215.765 2150.94 216.053 2150.19 216.221 2150.84 216.446 2151.41 216.851 2151.83 217.39 2152.37 218.081 2152.83 218.826 2153.21 219.613ZM2151.84 210.508C2151.92 209.457 2151.49 208.432 2150.69 207.748 2149.75 207.085 2148.6 206.762 2147.45 206.834L2144.5 206.834 2144.5 214.428 2147.03 214.428C2147.7 214.436 2148.37 214.35 2149.02 214.173 2149.57 214.024 2150.08 213.767 2150.53 213.417 2150.95 213.087 2151.28 212.666 2151.5 212.187 2151.74 211.659 2151.85 211.086 2151.84 210.508Z" fill="#009245"/><path d="M2175.7 220.949C2175.72 221.945 2175.49 222.931 2175.03 223.814 2174.58 224.637 2173.94 225.339 2173.17 225.862 2172.29 226.441 2171.32 226.855 2170.29 227.084 2169.08 227.364 2167.84 227.5 2166.59 227.488 2165.98 227.488 2165.38 227.465 2164.77 227.418 2164.17 227.371 2163.59 227.312 2163.03 227.242 2162.47 227.172 2161.95 227.09 2161.46 226.996 2160.97 226.902 2160.52 226.803 2160.12 226.697L2160.12 223.674C2161.08 224.024 2162.07 224.283 2163.08 224.447 2164.32 224.646 2165.57 224.74 2166.82 224.729 2167.68 224.742 2168.55 224.663 2169.39 224.491 2170.01 224.37 2170.6 224.131 2171.13 223.788 2171.56 223.507 2171.9 223.115 2172.12 222.654 2172.33 222.173 2172.44 221.651 2172.43 221.125 2172.44 220.551 2172.26 219.989 2171.91 219.534 2171.53 219.064 2171.07 218.665 2170.55 218.356 2169.93 217.986 2169.29 217.668 2168.62 217.407 2167.9 217.12 2167.17 216.824 2166.42 216.52 2165.67 216.215 2164.93 215.884 2164.21 215.526 2163.52 215.188 2162.87 214.762 2162.29 214.261 2161.73 213.78 2161.26 213.199 2160.92 212.547 2160.56 211.822 2160.38 211.019 2160.4 210.209 2160.41 209.41 2160.57 208.62 2160.9 207.889 2161.24 207.103 2161.77 206.408 2162.43 205.858 2163.21 205.214 2164.12 204.728 2165.09 204.426 2166.34 204.038 2167.65 203.854 2168.96 203.881 2169.35 203.881 2169.77 203.898 2170.22 203.934 2170.67 203.969 2171.13 204.019 2171.59 204.083 2172.05 204.147 2172.51 204.221 2172.96 204.303 2173.41 204.385 2173.83 204.473 2174.22 204.566L2174.22 207.379C2173.33 207.124 2172.43 206.927 2171.51 206.79 2170.65 206.658 2169.77 206.59 2168.89 206.588 2167.52 206.485 2166.14 206.797 2164.94 207.484 2164.13 208.015 2163.65 208.925 2163.67 209.893 2163.66 210.469 2163.84 211.034 2164.19 211.492 2164.57 211.968 2165.03 212.373 2165.55 212.688 2166.17 213.064 2166.81 213.384 2167.48 213.645 2168.2 213.933 2168.94 214.229 2169.69 214.533 2170.44 214.838 2171.17 215.172 2171.89 215.535 2172.59 215.881 2173.23 216.315 2173.82 216.827 2174.38 217.321 2174.84 217.914 2175.18 218.576 2175.54 219.314 2175.72 220.128 2175.7 220.949Z" fill="#009245"/><path d="M2196.83 222.092 2192.91 222.092 2192.91 227.172 2189.78 227.172 2189.78 222.092 2178.72 222.092 2178.72 219.402 2188.51 204.197 2192.91 204.197 2192.91 219.402 2196.83 219.402ZM2189.78 207.15 2181.78 219.402 2189.78 219.402Z" fill="#009245"/><path d="M2215.48 221.406C2215.52 223.191 2214.67 224.881 2213.21 225.906 2212.44 226.446 2211.58 226.845 2210.68 227.084 2208.55 227.629 2206.32 227.623 2204.2 227.066 2203.33 226.829 2202.52 226.429 2201.8 225.889 2201.18 225.414 2200.68 224.8 2200.34 224.096 2200.01 223.381 2199.84 222.6 2199.85 221.811 2199.82 220.499 2200.23 219.216 2201.03 218.172 2202.02 216.99 2203.26 216.041 2204.67 215.395 2203.39 214.81 2202.27 213.941 2201.38 212.855 2199.72 210.617 2200.06 207.475 2202.18 205.656 2202.86 205.081 2203.64 204.642 2204.49 204.364 2205.55 204.022 2206.65 203.859 2207.76 203.881 2208.81 203.864 2209.86 203.992 2210.88 204.259 2211.69 204.471 2212.46 204.838 2213.14 205.34 2213.73 205.786 2214.2 206.372 2214.51 207.045 2215.3 208.91 2215.05 211.056 2213.85 212.688 2212.98 213.724 2211.9 214.563 2210.68 215.148 2211.34 215.476 2211.97 215.852 2212.58 216.273 2213.14 216.665 2213.66 217.125 2214.11 217.645 2215.01 218.686 2215.5 220.026 2215.48 221.406ZM2212.15 221.635C2212.15 221.204 2212.08 220.776 2211.94 220.369 2211.78 219.917 2211.52 219.505 2211.19 219.156 2210.75 218.699 2210.26 218.297 2209.73 217.961 2208.99 217.492 2208.21 217.081 2207.41 216.73 2206.71 217.061 2206.03 217.446 2205.39 217.882 2204.91 218.211 2204.46 218.601 2204.08 219.042 2203.76 219.4 2203.52 219.814 2203.37 220.264 2203.22 220.695 2203.15 221.146 2203.15 221.6 2203.14 222.087 2203.26 222.569 2203.5 222.997 2203.73 223.406 2204.05 223.757 2204.44 224.025 2204.87 224.322 2205.35 224.536 2205.86 224.658 2206.45 224.803 2207.05 224.874 2207.65 224.869 2208.25 224.872 2208.84 224.808 2209.41 224.676 2209.92 224.565 2210.4 224.365 2210.84 224.087 2211.24 223.834 2211.57 223.49 2211.8 223.085 2212.05 222.641 2212.17 222.141 2212.15 221.635ZM2211.84 209.523C2211.9 208.609 2211.48 207.728 2210.74 207.194 2208.81 206.178 2206.51 206.175 2204.59 207.186 2203.85 207.698 2203.43 208.557 2203.49 209.453 2203.48 209.889 2203.57 210.321 2203.75 210.719 2203.95 211.133 2204.23 211.504 2204.57 211.809 2204.99 212.189 2205.46 212.525 2205.95 212.811 2206.59 213.182 2207.24 213.517 2207.92 213.813 2209.01 213.347 2210.01 212.689 2210.87 211.87 2211.49 211.249 2211.84 210.403 2211.84 209.523Z" fill="#009245"/><path d="M2234.69 219.824C2234.7 220.906 2234.45 221.975 2233.95 222.936 2233.46 223.877 2232.76 224.702 2231.92 225.353 2231.01 226.054 2229.97 226.587 2228.87 226.926 2227.64 227.309 2226.36 227.499 2225.07 227.488 2224.73 227.488 2224.37 227.48 2223.97 227.462 2223.58 227.444 2223.19 227.421 2222.81 227.392 2222.42 227.362 2222.04 227.33 2221.67 227.295 2221.3 227.26 2220.97 227.219 2220.68 227.172L2220.68 224.395C2221.39 224.56 2222.12 224.671 2222.85 224.729 2223.66 224.799 2224.49 224.834 2225.32 224.834 2226.18 224.845 2227.03 224.733 2227.85 224.5 2228.55 224.306 2229.2 223.981 2229.77 223.542 2230.28 223.14 2230.7 222.622 2230.98 222.03 2231.27 221.405 2231.41 220.723 2231.4 220.035 2231.5 218.792 2230.91 217.597 2229.86 216.915 2228.51 216.186 2226.98 215.848 2225.44 215.94L2221.08 215.94 2221.08 204.197 2233.46 204.197 2233.46 206.869 2223.97 206.869 2223.97 213.32 2225.97 213.32C2227.05 213.318 2228.13 213.418 2229.19 213.619 2230.17 213.796 2231.12 214.151 2231.97 214.665 2232.78 215.16 2233.46 215.849 2233.94 216.669 2234.47 217.634 2234.73 218.724 2234.69 219.824Z" fill="#009245"/><path d="M2257.14 234.379 2237.34 234.379 2237.34 231.848 2257.14 231.848Z" fill="#009245"/><path d="M2276.75 227.172 2273.34 227.172 2271.74 222.162 2262.18 222.162 2260.56 227.172 2257.31 227.172 2264.94 204.197 2269.23 204.197ZM2270.85 219.367 2266.96 207.08 2263.08 219.367Z" fill="#009245"/><path d="M2156.85 273.925 2153.32 273.925 2149.89 266.578C2149.68 266.087 2149.41 265.619 2149.1 265.18 2148.86 264.841 2148.57 264.544 2148.23 264.301 2147.92 264.085 2147.58 263.927 2147.21 263.835 2146.81 263.737 2146.39 263.69 2145.97 263.695L2144.5 263.695 2144.5 273.925 2141.37 273.925 2141.37 250.951 2147.52 250.951C2148.68 250.928 2149.84 251.076 2150.96 251.39 2151.83 251.632 2152.63 252.051 2153.33 252.621 2153.93 253.133 2154.4 253.788 2154.68 254.528 2154.98 255.317 2155.12 256.155 2155.11 256.998 2155.12 257.687 2155.01 258.372 2154.8 259.028 2154.59 259.659 2154.27 260.249 2153.86 260.768 2153.42 261.305 2152.9 261.763 2152.31 262.122 2151.65 262.519 2150.94 262.807 2150.19 262.974 2150.84 263.199 2151.41 263.605 2151.83 264.143 2152.37 264.835 2152.83 265.58 2153.21 266.367ZM2151.84 257.261C2151.92 256.21 2151.49 255.186 2150.69 254.501 2149.75 253.838 2148.6 253.516 2147.45 253.587L2144.5 253.587 2144.5 261.181 2147.03 261.181C2147.7 261.19 2148.37 261.104 2149.02 260.926 2149.57 260.778 2150.09 260.521 2150.53 260.17 2150.95 259.84 2151.28 259.419 2151.5 258.94 2151.74 258.413 2151.86 257.839 2151.84 257.261Z" fill="#0000FF"/><path d="M2175.7 267.703C2175.72 268.699 2175.49 269.684 2175.03 270.568 2174.58 271.39 2173.94 272.093 2173.17 272.616 2172.29 273.195 2171.32 273.609 2170.29 273.837 2169.08 274.117 2167.84 274.253 2166.59 274.242 2165.98 274.242 2165.38 274.218 2164.77 274.171 2164.17 274.125 2163.59 274.066 2163.03 273.996 2162.48 273.925 2161.95 273.843 2161.46 273.75 2160.97 273.656 2160.52 273.556 2160.12 273.451L2160.12 270.427C2161.08 270.777 2162.08 271.036 2163.08 271.201 2164.32 271.399 2165.57 271.493 2166.82 271.482 2167.68 271.496 2168.55 271.416 2169.4 271.245 2170.02 271.123 2170.61 270.885 2171.14 270.542 2171.56 270.261 2171.9 269.868 2172.12 269.408 2172.33 268.926 2172.44 268.404 2172.43 267.878 2172.44 267.304 2172.26 266.742 2171.91 266.288 2171.53 265.818 2171.07 265.419 2170.55 265.11 2169.93 264.739 2169.29 264.421 2168.62 264.161 2167.9 263.874 2167.17 263.578 2166.42 263.273 2165.67 262.968 2164.93 262.637 2164.21 262.28 2163.52 261.941 2162.87 261.516 2162.29 261.014 2161.73 260.534 2161.27 259.952 2160.92 259.3 2160.56 258.575 2160.38 257.772 2160.4 256.962 2160.41 256.163 2160.57 255.374 2160.9 254.642 2161.24 253.856 2161.77 253.161 2162.43 252.612 2163.21 251.968 2164.12 251.481 2165.09 251.179 2166.34 250.791 2167.65 250.607 2168.96 250.634 2169.35 250.634 2169.77 250.652 2170.22 250.687 2170.67 250.722 2171.13 250.772 2171.59 250.836 2172.06 250.901 2172.51 250.974 2172.96 251.056 2173.42 251.138 2173.83 251.226 2174.22 251.32L2174.22 254.132C2173.33 253.878 2172.43 253.681 2171.51 253.543 2170.65 253.411 2169.77 253.344 2168.89 253.341 2167.52 253.239 2166.14 253.551 2164.94 254.238 2164.13 254.769 2163.65 255.679 2163.67 256.646 2163.66 257.223 2163.84 257.787 2164.19 258.246 2164.57 258.721 2165.03 259.126 2165.55 259.441 2166.17 259.817 2166.81 260.138 2167.48 260.399 2168.2 260.686 2168.94 260.982 2169.69 261.287 2170.44 261.591 2171.17 261.925 2171.89 262.289 2172.59 262.634 2173.23 263.069 2173.82 263.581 2174.38 264.074 2174.84 264.667 2175.18 265.33 2175.54 266.067 2175.72 266.881 2175.7 267.703Z" fill="#0000FF"/><path d="M2196.83 268.845 2192.91 268.845 2192.91 273.925 2189.78 273.925 2189.78 268.845 2178.72 268.845 2178.72 266.156 2188.51 250.951 2192.91 250.951 2192.91 266.156 2196.83 266.156ZM2189.78 253.904 2181.78 266.156 2189.78 266.156Z" fill="#0000FF"/><path d="M2215.48 268.16C2215.52 269.945 2214.67 271.635 2213.21 272.66 2212.44 273.2 2211.58 273.599 2210.68 273.837 2208.55 274.382 2206.32 274.376 2204.2 273.82 2203.33 273.582 2202.52 273.183 2201.8 272.642 2201.18 272.168 2200.68 271.553 2200.34 270.849 2200.01 270.134 2199.84 269.353 2199.85 268.564 2199.82 267.253 2200.23 265.97 2201.03 264.925 2202.02 263.743 2203.26 262.795 2204.67 262.148 2203.39 261.564 2202.27 260.695 2201.38 259.608 2199.72 257.37 2200.06 254.228 2202.18 252.41 2202.86 251.834 2203.64 251.395 2204.49 251.118 2205.55 250.776 2206.65 250.612 2207.76 250.634 2208.81 250.618 2209.86 250.745 2210.88 251.012 2211.7 251.225 2212.46 251.592 2213.14 252.093 2213.73 252.539 2214.2 253.125 2214.51 253.798 2215.3 255.663 2215.05 257.809 2213.85 259.441 2212.98 260.478 2211.9 261.317 2210.68 261.902 2211.34 262.23 2211.97 262.606 2212.58 263.027 2213.14 263.418 2213.66 263.879 2214.11 264.398 2215.01 265.439 2215.5 266.779 2215.48 268.16ZM2212.15 268.388C2212.15 267.958 2212.08 267.53 2211.94 267.123 2211.78 266.671 2211.52 266.258 2211.19 265.91 2210.75 265.452 2210.26 265.051 2209.73 264.714 2208.99 264.246 2208.21 263.834 2207.41 263.484 2206.71 263.815 2206.04 264.2 2205.4 264.635 2204.91 264.965 2204.47 265.354 2204.08 265.795 2203.76 266.153 2203.52 266.568 2203.37 267.017 2203.22 267.448 2203.15 267.899 2203.15 268.353 2203.14 268.841 2203.26 269.323 2203.5 269.75 2203.73 270.159 2204.05 270.511 2204.44 270.779 2204.87 271.075 2205.35 271.29 2205.86 271.412 2206.45 271.557 2207.05 271.627 2207.65 271.623 2208.25 271.626 2208.84 271.561 2209.41 271.429 2209.92 271.318 2210.41 271.119 2210.84 270.84 2211.24 270.587 2211.57 270.244 2211.8 269.838 2212.05 269.395 2212.17 268.894 2212.15 268.388ZM2211.84 256.277C2211.9 255.363 2211.48 254.481 2210.74 253.948 2208.82 252.931 2206.51 252.928 2204.59 253.939 2203.85 254.451 2203.43 255.311 2203.49 256.207 2203.48 256.642 2203.57 257.074 2203.75 257.472 2203.95 257.887 2204.23 258.257 2204.57 258.562 2204.99 258.942 2205.46 259.278 2205.95 259.564 2206.59 259.936 2207.24 260.27 2207.92 260.566 2209.01 260.101 2210.01 259.443 2210.87 258.624 2211.49 258.002 2211.84 257.157 2211.84 256.277Z" fill="#0000FF"/><path d="M2234.69 266.578C2234.7 267.66 2234.45 268.728 2233.95 269.689 2233.46 270.631 2232.76 271.455 2231.92 272.106 2231.01 272.808 2229.97 273.34 2228.87 273.679 2227.64 274.063 2226.36 274.253 2225.07 274.242 2224.73 274.242 2224.37 274.233 2223.98 274.215 2223.58 274.198 2223.19 274.174 2222.81 274.145 2222.42 274.116 2222.04 274.083 2221.67 274.048 2221.3 274.013 2220.97 273.972 2220.68 273.925L2220.68 271.148C2221.39 271.313 2222.12 271.425 2222.85 271.482 2223.67 271.552 2224.49 271.587 2225.32 271.587 2226.18 271.599 2227.03 271.486 2227.85 271.253 2228.55 271.059 2229.2 270.734 2229.77 270.295 2230.28 269.893 2230.7 269.375 2230.98 268.784 2231.27 268.159 2231.41 267.477 2231.4 266.789 2231.5 265.546 2230.91 264.351 2229.86 263.668 2228.51 262.939 2226.98 262.601 2225.44 262.693L2221.08 262.693 2221.08 250.951 2233.46 250.951 2233.46 253.623 2223.97 253.623 2223.97 260.074 2225.97 260.074C2227.05 260.072 2228.13 260.172 2229.19 260.373 2230.17 260.55 2231.12 260.904 2231.97 261.418 2232.79 261.914 2233.46 262.602 2233.94 263.422 2234.47 264.387 2234.73 265.478 2234.69 266.578Z" fill="#0000FF"/><path d="M2257.14 281.132 2237.34 281.132 2237.34 278.601 2257.14 278.601Z" fill="#0000FF"/><path d="M2275 267.052C2275.02 268.065 2274.8 269.068 2274.35 269.979 2273.92 270.831 2273.3 271.57 2272.53 272.132 2271.66 272.752 2270.69 273.206 2269.66 273.468 2268.44 273.785 2267.19 273.939 2265.93 273.925L2259.91 273.925 2259.91 250.951 2266.49 250.951C2271.61 250.951 2274.17 252.814 2274.17 256.541 2274.2 257.672 2273.89 258.786 2273.28 259.74 2272.57 260.713 2271.55 261.414 2270.39 261.726 2271 261.841 2271.6 262.042 2272.16 262.324 2272.71 262.599 2273.2 262.968 2273.62 263.414 2274.06 263.873 2274.4 264.41 2274.63 264.996 2274.88 265.651 2275.01 266.349 2275 267.052ZM2270.92 256.962C2270.92 256.511 2270.85 256.063 2270.71 255.635 2270.56 255.217 2270.31 254.845 2269.97 254.563 2269.55 254.229 2269.06 253.987 2268.54 253.851 2267.81 253.658 2267.04 253.569 2266.28 253.587L2263.04 253.587 2263.04 260.777 2266.17 260.777C2266.83 260.784 2267.48 260.707 2268.11 260.548 2268.65 260.415 2269.16 260.176 2269.61 259.845 2270.02 259.533 2270.35 259.126 2270.58 258.659 2270.82 258.126 2270.93 257.546 2270.92 256.962ZM2271.67 267.158C2271.68 266.608 2271.56 266.065 2271.3 265.576 2271.05 265.098 2270.68 264.69 2270.23 264.389 2269.71 264.043 2269.13 263.79 2268.52 263.642 2267.77 263.458 2267.01 263.369 2266.24 263.378L2263.04 263.378 2263.04 271.289 2266.35 271.289C2267.76 271.392 2269.16 271.041 2270.36 270.287 2271.28 269.521 2271.77 268.353 2271.67 267.158Z" fill="#0000FF"/></svg>